<?xml version="1.0" encoding="utf-8"?>
<!-- Generator: Adobe Illustrator 25.0.0, SVG Export Plug-In . SVG Version: 6.00 Build 0)  -->
<svg version="1.1" id="Layer_1" xmlns="http://www.w3.org/2000/svg" xmlns:xlink="http://www.w3.org/1999/xlink" x="0px" y="0px"
	 viewBox="0 0 595.3 841.9" style="enable-background:new 0 0 595.3 841.9;" xml:space="preserve">
<style type="text/css">
	.st0{fill:#FFFFFF;}
	.st1{fill:#F9F9F9;}
	.st2{fill:#020000;}
</style>
<g>
	<g>
		<path class="st0" d="M445.2,505.5c-95.3,0-190.6,0-285.9,0c0-72.4,0-144.8,0-217.2c95.3,0,190.6,0,285.9,0
			C445.2,360.7,445.2,433.1,445.2,505.5z M432.1,489.7c-4.8-4.2-10.6-2.3-15.9-2.6c-5.7-0.3-11.5-0.1-17.3-0.1c-5.6,0-11.3,0-16.9,0
			c8.8-5.3,14.9-12,16.7-21.4c1.9-9.6-3.6-17.4-8.7-25.1c1.3-0.6,2.1-1,3-1.4c1-0.5,1.9-0.9,3.8-1.9c-11.6-11.9-25.6-15.5-41.5-13.9
			c4.1-14.5-7.8-24.4-10-36c5-6.6,2-13.3,0.5-19.2c-2.2-8.5-10.9-3.7-17.3-5.2c0-5.6,0.3-11-0.1-16.4c-0.2-2.7-0.5-4.3,2.2-6.4
			c3.9-2.9,3.7-7.4,1.6-11.4c-2.5-4.8-7.3-5.2-11.9-4c-4.2,1-6.5,4.1-6.6,8.5c-0.3,6.9,4.3,9.4,10.6,10.4c0.5,6.8,0.9,13.2,1.3,20.4
			c-5.5,0-10.1-0.4-14.6,0.2c-1.9,0.2-4.6,2.2-4.9,3.9c-0.8,3.4,2.4,3.4,5,3.4c3.4,0,6.9,0,10.7,0c3.6,11.6,7.2,22.9,10.5,34.4
			c0.8,2.8,0.8,6.2-0.2,8.9c-4.2,11.8-8.8,23.5-13.6,35c-0.6,1.5-3.3,2.9-5.1,3c-7.5,0.3-15,0.2-22.5-0.2c-1.5-0.1-3.6-1.8-4.1-3.2
			c-4.2-11.3-4.5-22.8-2.4-34.7c1.5-8.1,0.8-16.5,0.6-24.8c-0.1-3.3-2.2-5.7-6.3-5.7c-25,0.1-49.9,0.1-74.9,0.2
			c-5.5,0-7.9,3.2-8.6,7.8c-1.1,7.8,1.8,12.1,12.5,17.3c-2.4,3.7-4.9,7.2-7,10.9c-2,3.3-4.3,6.5-5.3,10.1c-2.6,10-4.6,20.1-6.9,30.1
			c-0.8,3.5,0.5,5.2,4.4,5.2c3.6-0.1,7.3,0,11.1,0c2,9.9,7.8,17,17.7,21.2c-2.1,0.4-4,0.4-5.9,0.4c-13.6,0-27.3,0-40.9,0.1
			c-1.7,0-3.5,0.8-5.2,1.2c0.1,0.5,0.3,0.9,0.4,1.4C257.4,489.7,344.8,489.7,432.1,489.7z"/>
		<path d="M432.1,489.7c-87.4,0-174.7,0-262.1,0c-0.1-0.5-0.3-0.9-0.4-1.4c1.7-0.4,3.5-1.2,5.2-1.2c13.6-0.1,27.3-0.1,40.9-0.1
			c1.9,0,3.7,0,5.9-0.4c-9.8-4.2-15.7-11.3-17.7-21.2c-3.9,0-7.5,0-11.1,0c-3.9,0.1-5.1-1.7-4.4-5.2c2.3-10,4.2-20.2,6.9-30.1
			c0.9-3.6,3.3-6.8,5.3-10.1c2.2-3.7,4.6-7.2,7-10.9c-10.6-5.1-13.6-9.4-12.5-17.3c0.7-4.6,3.1-7.8,8.6-7.8c25,0,49.9-0.1,74.9-0.2
			c4.1,0,6.2,2.3,6.3,5.7c0.2,8.3,0.8,16.7-0.6,24.8c-2.1,11.9-1.8,23.4,2.4,34.7c0.5,1.4,2.6,3.1,4.1,3.2c7.5,0.4,15,0.5,22.5,0.2
			c1.8-0.1,4.5-1.5,5.1-3c4.8-11.6,9.4-23.3,13.6-35c1-2.7,1-6.1,0.2-8.9c-3.2-11.5-6.9-22.8-10.5-34.4c-3.8,0-7.2,0-10.7,0
			c-2.6,0-5.7,0-5-3.4c0.4-1.6,3.1-3.6,4.9-3.9c4.5-0.6,9.1-0.2,14.6-0.2c-0.5-7.1-0.9-13.6-1.3-20.4c-6.2-1-10.8-3.4-10.6-10.4
			c0.2-4.4,2.4-7.5,6.6-8.5c4.6-1.1,9.4-0.7,11.9,4c2.1,4,2.3,8.5-1.6,11.4c-2.7,2-2.5,3.7-2.2,6.4c0.4,5.4,0.1,10.8,0.1,16.4
			c6.4,1.5,15-3.2,17.3,5.2c1.5,5.9,4.6,12.5-0.5,19.2c2.1,11.6,14.1,21.6,10,36c16-1.6,29.9,2,41.5,13.9c-1.9,0.9-2.8,1.4-3.8,1.9
			c-0.9,0.4-1.7,0.8-3,1.4c5.1,7.8,10.6,15.5,8.7,25.1c-1.8,9.5-8,16.1-16.7,21.4c5.6,0,11.3,0,16.9,0c5.8,0,11.5-0.3,17.3,0.1
			C421.6,487.4,427.3,485.5,432.1,489.7z M240.3,486.5c41,0,80.7,0,121.6,0c-10.5-4.3-16.5-10.6-17.3-20.2c-28.8,0-57,0-85.5,0
			C256.5,475.7,250.5,482.3,240.3,486.5z M276,452c-4.2-9.3-7.5-18.2-12.3-26.2c-2-3.4-7.1-6.8-11.1-7.3c-11-1.3-22.1-1.6-33.2-1.2
			c-13,0.4-17.9,4-20.2,13.8c-2.4,10-4.2,20.1-6.3,30.2c7.9,1.4,7.7,1.4,9.7-5.3c1.5-5.2,3-10.5,5.3-15.4c1.3-2.7,4-6.1,6.6-6.6
			c7.9-1.5,16.1-2.1,24.2-2.5c9.4-0.5,16.3,2.6,19.8,11.9C262.1,453,262.8,452.8,276,452z M324.6,370.5c4.9,14,9.6,27.2,14.1,40.6
			c0.5,1.5,0.5,3.2,0.2,4.8c-2.1,9.3-4.5,18.6-6.5,27.9c-1.4,6.2-2.5,12.5-3.8,19.2c3.9,0,7,0.3,10-0.1c1.4-0.2,3.4-1.6,3.7-2.9
			c3.3-13.1,6.5-26.3,9.2-39.6c0.7-3.4,0.5-7.4-0.8-10.6c-5.4-13.2-11.5-26.2-17.5-39.7C330.8,370.2,327.8,370.3,324.6,370.5z
			 M209.5,414.4c14.5,0,28.3-0.3,42,0.1c8.9,0.3,14.8,5.7,18.3,13.1c3.1,6.8,5.4,13.9,8.3,20.7c0.6,1.4,1.9,2.6,2.9,3.8
			c0.3-1.7,1.2-3.4,0.9-5c-2.1-8.7-4.3-17.3-2.5-26.3c0.8-4.2,1.3-8.5,2-13c-24.2,0-47.7,0-71.4,0
			C209.7,410.4,209.6,412.4,209.5,414.4z M346.7,456.7c0.5,0.5,1,1,1.5,1.5c13.6-7.5,27.2-15,41.1-22.7c-10-7-21.1-10.3-33.9-7.4
			c-0.9,0.2-2.2,1.1-2.4,1.9C350.9,438.9,348.8,447.8,346.7,456.7z M245.9,461.6c0-8.7-7.4-16.1-15.8-15.9
			c-7.2,0.2-14.1,7.6-14.2,15.2c-0.1,7.3,6.9,14.1,14.5,14C238.9,474.9,245.9,468.9,245.9,461.6z M370.8,450.7
			c8.7,6.3,10.8,11,7.4,16c-2.6,3.8-7.5,5.1-11.6,2.9c-4.7-2.5-4.2-6.1-2.4-10.2c2,1,3.6,1.8,5.3,2.6c1.6-1.4,2.9-2.6,4.3-3.8
			c-4.6-6.2-5.8-6.6-11.4-2.5c-1.9,1.4-3,4-3.9,6.3c-0.8,2-1.6,4.7-0.8,6.5c2.4,5.3,8.8,8.4,15.1,7.6c6.3-0.7,10.5-3.9,12.4-9.7
			c2.3-6.9-0.6-12.9-9.5-18.7C374.4,448.5,372.9,449.5,370.8,450.7z"/>
		<path class="st0" d="M240.3,486.5c10.2-4.2,16.3-10.8,18.7-20.2c28.5,0,56.7,0,85.5,0c0.9,9.6,6.9,15.9,17.3,20.2
			C320.9,486.5,281.3,486.5,240.3,486.5z"/>
		<path class="st0" d="M276,452c-13.2,0.7-13.9,1-17.5-8.8c-3.5-9.4-10.4-12.4-19.8-11.9c-8.1,0.4-16.3,1-24.2,2.5
			c-2.6,0.5-5.3,4-6.6,6.6c-2.3,4.9-3.8,10.2-5.3,15.4c-2,6.7-1.9,6.7-9.7,5.3c2.1-10.1,3.9-20.2,6.3-30.2
			c2.4-9.8,7.3-13.4,20.2-13.8c11.1-0.4,22.2-0.1,33.2,1.2c4.1,0.5,9.1,3.9,11.2,7.3C268.5,433.8,271.8,442.7,276,452z"/>
		<path class="st0" d="M324.6,370.5c3.3-0.1,6.2-0.3,8.7-0.4c6,13.5,12,26.5,17.5,39.7c1.3,3.2,1.5,7.2,0.8,10.6
			c-2.7,13.3-5.9,26.4-9.2,39.6c-0.3,1.2-2.3,2.6-3.7,2.9c-3,0.4-6.1,0.1-10,0.1c1.3-6.7,2.4-13,3.8-19.2c2.1-9.3,4.5-18.6,6.5-27.9
			c0.3-1.5,0.3-3.3-0.2-4.8C334.2,397.7,329.5,384.4,324.6,370.5z"/>
		<path class="st0" d="M209.5,414.4c0.1-2,0.2-4,0.3-6.4c23.7,0,47.2,0,71.4,0c-0.7,4.5-1.2,8.8-2,13c-1.7,9,0.4,17.6,2.5,26.3
			c0.4,1.5-0.5,3.3-0.9,5c-1-1.3-2.3-2.4-2.9-3.8c-2.8-6.9-5.1-14-8.3-20.7c-3.4-7.4-9.4-12.8-18.3-13.1
			C237.8,414,224,414.4,209.5,414.4z"/>
		<path class="st0" d="M245.9,461.6c0,7.4-6.9,13.3-15.6,13.3c-7.6,0-14.6-6.7-14.5-14c0.1-7.6,7-15.1,14.2-15.2
			C238.5,445.5,245.8,452.8,245.9,461.6z M230.9,469.4c6.2,0.1,10.2-3.3,10.2-8.6c0-5.3-3.8-8.8-9.4-8.8c-5.3,0-10.1,4.4-10.1,9.2
			C221.5,466.1,225.2,469.4,230.9,469.4z"/>
		<path class="st0" d="M370.8,450.7c2.1-1.2,3.6-2.2,5.1-3.1c8.9,5.9,11.8,11.8,9.5,18.7c-1.9,5.8-6.2,9-12.4,9.7
			c-6.3,0.7-12.8-2.3-15.1-7.6c-0.8-1.8,0-4.4,0.8-6.5c0.9-2.3,2-4.8,3.9-6.3c5.5-4.2,6.8-3.8,11.4,2.5c-1.3,1.2-2.7,2.4-4.3,3.8
			c-1.7-0.8-3.3-1.6-5.3-2.6c-1.8,4.1-2.2,7.7,2.4,10.2c4,2.2,9,0.9,11.6-2.9C381.6,461.7,379.5,457,370.8,450.7z"/>
		<path d="M230.9,469.4c-5.7-0.1-9.4-3.3-9.3-8.2c0.1-4.8,4.8-9.1,10.1-9.2c5.6,0,9.4,3.5,9.4,8.8
			C241.1,466.1,237.1,469.5,230.9,469.4z"/>
	</g>
</g>
<ellipse cx="372.5" cy="466.4" rx="25.2" ry="20.5"/>
<ellipse class="st1" cx="371.8" cy="465.7" rx="14.6" ry="11.8"/>
<ellipse transform="matrix(0.9434 -0.3317 0.3317 0.9434 -133.2364 149.5965)" class="st2" cx="371.6" cy="465.1" rx="10" ry="7.1"/>
</svg>
