<?xml version="1.0" encoding="utf-8"?>
<!-- Generator: Adobe Illustrator 25.0.0, SVG Export Plug-In . SVG Version: 6.00 Build 0)  -->
<svg version="1.1" id="Layer_1" xmlns="http://www.w3.org/2000/svg" xmlns:xlink="http://www.w3.org/1999/xlink" x="0px" y="0px"
	 viewBox="0 0 595.3 841.9" style="enable-background:new 0 0 595.3 841.9;" xml:space="preserve">
<style type="text/css">
	.st0{fill:#FFFFFF;}
	.st1{fill:none;stroke:#000000;stroke-miterlimit:10;}
	.st2{font-family:'ArialMT';}
	.st3{font-size:28.7756px;}
	.st4{fill:#F9F9F9;}
	.st5{fill:#020000;}
</style>
<g>
	<g>
		<path class="st0" d="M177,288c98.8,0,197.7,0,296.5,0c0,69.7,0,139.4,0,209.1c-98.8,0-197.7,0-296.5,0
			C177,427.4,177,357.7,177,288z M190.9,466c0.1,0.6,0.1,1.3,0.2,2c88.7,0,177.4,0,266,0c0-0.7,0.1-1.5,0.1-2.2
			c-8.4-2-17.2-0.1-26-1.1c12.3-9.1,15.3-16.7,12-29c-3.5-12.6-12.1-19.2-26.2-19.5c-2,5.8-4.3,11.6-5.9,17.7
			c-1.6,6,1.9,13.2,6.9,14.4c2,0.4,5-0.6,6.4-2.1c0.8-0.9-0.3-4.4-1.2-6.3c-1.4-2.9-3.4-5.4-5.2-8.1c0.4-0.5,0.8-1,1.2-1.5
			c2.5,1.1,5.1,2.1,7.6,3.5c4.6,2.5,6.3,6.7,5.1,12c-1.2,5.6-5.2,9-10.4,9.2c-11.7,0.5-19.6-11.5-15.2-23c1.5-3.9,2.8-7.9,4.1-11.9
			c2.6-8,6.1-10.5,14.3-10.1c3.6,0.2,7.3,0,11.4,0c-0.6-1.5-0.7-2.9-1.4-3.4c-5.6-4.4-11-9.1-17-12.6c-4-2.4-6-4.9-5.4-9.8
			c1.1-8.5-0.5-16.4-5.2-23.5c-10.5-15.8-20.5-31.8-31.6-47.1c-3.1-4.3-8.8-8.3-13.7-8.9c-10.8-1.3-21.9-0.6-32.8-0.3
			c-6.2,0.2-8.5,3.4-8.5,10c-0.1,13.1-0.3,26.2-0.4,39.3c-0.1,8,0,16,0,24.5c-2.6,0-4,0-5.4,0c-32.9,0-65.8,0-98.6,0
			c-7.4,0-14.7,0-22.1,0c-7.2,0-8.2,1.2-8.2,9.1c0,6.4,0,12.7,0,19c0,6.9,0.7,7.7,7,7.8c2.6,0,5.3,0,7.9,0c0.5,3.9,0.1,7.4,1.4,9.9
			c2.5,4.7,0.5,13.6,9.6,12.1c0,9.9,7.4,3.4,11.1,6.7c0.9,8.2,3.9,16.1,12,22.2c-6.2,0-11,0-15.8,0c-4.9,0-9.7-0.2-14.6,0.1
			C199.8,465.3,195,463.7,190.9,466z"/>
		<path d="M190.9,466c4.1-2.4,8.9-0.8,13.3-1c4.8-0.3,9.7-0.1,14.6-0.1c4.8,0,9.6,0,15.8,0c-8.1-6.1-11.1-14-12-22.2
			c-3.6-3.3-11.1,3.2-11.1-6.7c-9.1,1.5-7.1-7.5-9.6-12.1c-1.3-2.5-0.9-6-1.4-9.9c-2.6,0-5.2,0-7.9,0c-6.3-0.1-7-0.8-7-7.8
			c0-6.4,0-12.7,0-19c0-7.9,1.1-9.1,8.2-9.1c7.4,0,14.7,0,22.1,0c32.9,0,65.8,0,98.6,0c1.4,0,2.8,0,5.4,0c0-8.5,0-16.5,0-24.5
			c0.1-13.1,0.3-26.2,0.4-39.3c0.1-6.6,2.3-9.8,8.5-10c11-0.4,22-1.1,32.8,0.3c4.9,0.6,10.6,4.6,13.7,8.9
			c11,15.3,21.1,31.4,31.6,47.1c4.7,7.1,6.3,15,5.2,23.5c-0.6,5,1.3,7.4,5.4,9.8c6,3.6,11.4,8.3,17,12.6c0.7,0.5,0.8,2,1.4,3.4
			c-4.1,0-7.8,0.1-11.4,0c-8.2-0.4-11.7,2-14.3,10.1c-1.3,4-2.6,8-4.1,11.9c-4.4,11.5,3.5,23.5,15.2,23c5.2-0.2,9.2-3.6,10.4-9.2
			c1.2-5.3-0.6-9.5-5.1-12c-2.4-1.3-5-2.3-7.6-3.5c-0.4,0.5-0.8,1-1.2,1.5c1.8,2.7,3.8,5.2,5.2,8.1c0.9,1.9,2,5.4,1.2,6.3
			c-1.4,1.5-4.4,2.6-6.4,2.1c-5-1.1-8.5-8.4-6.9-14.4c1.6-6,3.9-11.9,5.9-17.7c14.1,0.3,22.7,6.9,26.2,19.5c3.4,12.3,0.4,19.9-12,29
			c8.9,1,17.6-0.9,26,1.1c0,0.7-0.1,1.5-0.1,2.2c-88.7,0-177.4,0-266,0C191,467.4,190.9,466.7,190.9,466z M385.4,367.4
			c-7.8-1.1-8.3-1.7-7.5-10.9c0.2-2.5,1-4.9,1.2-7.3c0.1-1.5,0.2-3.4-0.5-4.7c-3.7-7-7.3-14-11.6-20.6c-1.8-2.7-5-5.8-7.8-6.1
			c-8.5-0.8-17-0.3-25.8-0.3c0,34.2,0,68.2,0,102.2c0,4.1,2.2,4.1,5,4.1c11.7,0,23.3,0.2,35,0.2c1.7,0,3.4-0.2,3.8-0.2
			c2.5-11.6,4.4-22.2,7.1-32.7C386.1,383.2,388.3,375.5,385.4,367.4z M390.1,442.8c-14.6,0-31.1,0-47.6,0c-23.2,0-46.3-0.1-69.5-0.1
			c-2.4,0-5.2-0.8-5.6,3.4c-0.7,7.5-3.9,13.7-10.5,18.5c51.5,0,102,0,151.1,0C402.6,458,396.8,451,390.1,442.8z M396.5,366.2
			c-1.4-4.7-2.3-9.5-4.2-13.7c-3.8-8.2-8-16.1-12.2-24.1c-1.9-3.7-4-7.3-6.2-10.8c-3.5-5.8-8.5-9.6-15-9.8c-9.3-0.4-18.7-0.2-28,0.2
			c-6.5,0.2-7.2,1.4-7.3,8.4c-0.2,37.5-0.4,75-0.7,112.5c-0.1,8.8,1.1,10.4,9.5,10.5c15.3,0,30.5-0.3,45.8,0.1
			c8.1,0.2,10-2.4,12.2-9.8c3-10,5.9-20,8.6-30.1c1.4-5.3,3.3-9.7,9.3-9.3c0-3.9,0-7.3,0-11.4c-4.8,0-9.3,0.3-13.7-0.1
			c-3.3-0.3-4.5,1.5-5.1,4.4c-2.6,13.6-5,27.3-7.8,40.9c-0.3,1.4-2,3.4-3.1,3.5c-14.4,0.2-28.7,0.2-43.1,0c-3.6-0.1-5.7-2.2-5.7-6.7
			c0.1-34.2,0.2-68.5,0.2-102.7c0-3.5,1.2-4.8,4.4-4.8c6.6,0.1,13.3,0.5,19.9-0.1c8.2-0.8,13.2,3.7,17.2,10.3
			c2.5,4.2,4.5,8.7,6.9,13c2.2,3.9,4.6,7.7,6.7,11.6c1.5,2.9,3.5,5.8,4,9c1,5.9,1.2,12,1.7,18.2c6,0,11.7,0,18.9,0
			c-3-6.5-5.7-12.4-8.3-18.3c-0.5,0.3-1,0.5-1.5,0.8c1.2,2.6,2.4,5.2,3.9,8.4C401.1,366.2,399.1,366.2,396.5,366.2z M189.1,410.1
			c41.9,0,83.2,0,124.4,0c0-5.1,0-9.8,0-14.4c-41.7,0-82.9,0-124.4,0C189.1,400.5,189.1,405,189.1,410.1z M188.8,391.6
			c41.9,0,83.3,0,124.7,0c0-3.5,0-6.6,0-10c-2.4,0-4.4,0-6.3,0c-28.4,0-56.8,0-85.1,0c-9.5,0-19,0.1-28.6,0
			c-3.4-0.1-5.1,1.1-4.7,4.9C188.9,388,188.8,389.5,188.8,391.6z M222.7,437.7c4.1-11.8,11.9-18.4,22-18.7
			c10.6-0.3,17.5,5.3,22.7,18.5c4.2,0,8.2,0,12.3,0c0.3-0.5,0.7-1,1-1.6c-9.2-3.2-11.9-11.8-15.8-19.5c-0.6-1.1-2.7-1.8-4.1-1.9
			c-11.8-0.3-23.7-0.5-35.5-0.5c-1,0-2.5,1-2.9,1.9c-2.7,7-5.1,14.1-7.8,21.8C217.4,437.7,219.9,437.7,222.7,437.7z M256.5,444.4
			c-0.1-7.3-5.5-13.9-11.1-13.8c-5.4,0.1-10.1,6.2-10,12.7c0.1,6.5,4.6,11.7,10.1,11.8C251.7,455.2,256.6,450.4,256.5,444.4z
			 M315.2,437.9c-0.8-3.8,1.6-9.1-3.4-9.8c-7.4-1-15-0.2-22.9-0.2c1.3,4,2.3,7,3.4,10C299.7,437.9,307.2,437.9,315.2,437.9z"/>
		<path class="st0" d="M385.4,367.4c2.9,8.2,0.7,15.9-1.3,23.7c-2.6,10.4-4.6,21.1-7.1,32.7c-0.4,0-2.1,0.2-3.8,0.2
			c-11.7-0.1-23.3-0.2-35-0.2c-2.7,0-5,0-5-4.1c0.1-34,0-68,0-102.2c8.8,0,17.4-0.5,25.8,0.3c2.8,0.3,6,3.4,7.8,6.1
			c4.3,6.6,7.9,13.6,11.6,20.6c0.7,1.3,0.6,3.1,0.5,4.7c-0.2,2.5-1,4.9-1.2,7.3C377.1,365.7,377.5,366.2,385.4,367.4z M373.9,358.5
			c-0.7-4.1-0.7-7.7-1.9-10.7c-2.6-6.5-5.7-12.8-8.8-19c-1-1.9-2.6-4.4-4.2-4.7c-5.8-0.9-11.7-1.1-17.6-1.2c-1.1,0-3.3,1.7-3.3,2.7
			c-0.2,10.9-0.1,21.7-0.1,32.9C350,358.5,361.3,358.5,373.9,358.5z M354.8,377.1c-2.1-5.3-2.3-5.5-12.5-4.6
			c-1.7,0.1-3.2,1.8-4.8,2.8c0.2,0.6,0.5,1.2,0.7,1.8C343.6,377.1,349,377.1,354.8,377.1z"/>
		<path class="st0" d="M390.1,442.8c6.7,8.2,12.5,15.2,17.9,21.8c-49.2,0-99.6,0-151.1,0c6.6-4.8,9.9-11,10.5-18.5
			c0.4-4.2,3.2-3.4,5.6-3.4c23.2,0,46.3,0.1,69.5,0.1C359,442.8,375.5,442.8,390.1,442.8z"/>
		<path class="st0" d="M396.5,366.2c2.5,0,4.6,0,7.4,0c-1.5-3.2-2.7-5.8-3.9-8.4c0.5-0.3,1-0.5,1.5-0.8c2.7,5.9,5.4,11.8,8.3,18.3
			c-7.2,0-12.9,0-18.9,0c-0.5-6.2-0.7-12.3-1.7-18.2c-0.5-3.2-2.4-6.1-4-9c-2.1-4-4.6-7.7-6.7-11.6c-2.4-4.3-4.4-8.8-6.9-13
			c-4-6.6-9.1-11.1-17.2-10.3c-6.6,0.6-13.3,0.2-19.9,0.1c-3.2,0-4.4,1.3-4.4,4.8c0,34.2,0,68.5-0.2,102.7c0,4.4,2,6.6,5.7,6.7
			c14.4,0.2,28.7,0.2,43.1,0c1.1,0,2.8-2.1,3.1-3.5c2.7-13.6,5.2-27.3,7.8-40.9c0.5-2.9,1.8-4.6,5.1-4.4c4.4,0.4,8.9,0.1,13.7,0.1
			c0,4.2,0,7.6,0,11.4c-6-0.5-7.8,4-9.3,9.3c-2.7,10.1-5.6,20.1-8.6,30.1c-2.2,7.4-4.1,10-12.2,9.8c-15.3-0.4-30.5-0.1-45.8-0.1
			c-8.3,0-9.5-1.7-9.5-10.5c0.3-37.5,0.5-75,0.7-112.6c0-7,0.7-8.1,7.3-8.4c9.3-0.4,18.7-0.5,28-0.2c6.5,0.2,11.5,4.1,15,9.8
			c2.2,3.5,4.2,7.1,6.2,10.8c4.2,8,8.5,15.9,12.2,24.1C394.2,356.7,395.1,361.5,396.5,366.2z"/>
		<path class="st0" d="M189.1,410.1c0-5,0-9.6,0-14.4c41.5,0,82.7,0,124.4,0c0,4.6,0,9.3,0,14.4
			C272.3,410.1,230.9,410.1,189.1,410.1z"/>
		<path class="st0" d="M188.8,391.6c0-2.1,0.1-3.6,0-5.2c-0.4-3.9,1.3-5,4.7-4.9c9.5,0.2,19,0,28.6,0c28.4,0,56.8,0,85.1,0
			c2,0,3.9,0,6.3,0c0,3.4,0,6.5,0,10C272.1,391.6,230.7,391.6,188.8,391.6z"/>
		<path class="st0" d="M222.7,437.7c-2.9,0-5.3,0-8,0c2.7-7.6,5.1-14.7,7.8-21.8c0.4-0.9,1.9-1.9,2.9-1.9c11.8,0,23.7,0.2,35.5,0.5
			c1.4,0,3.6,0.8,4.1,1.9c3.9,7.7,6.5,16.2,15.8,19.5c-0.3,0.5-0.7,1-1,1.6c-4.1,0-8.2,0-12.3,0c-5.3-13.2-12.1-18.9-22.7-18.5
			C234.6,419.3,226.8,425.9,222.7,437.7z"/>
		<path class="st0" d="M256.5,444.4c0.1,6-4.8,10.8-11,10.7c-5.6-0.1-10-5.3-10.1-11.8c-0.1-6.5,4.6-12.6,10-12.7
			C251.1,430.4,256.5,437.1,256.5,444.4z M252.2,443.6c0-0.9-0.1-1.7-0.1-2.5c-2.2-1.3-4.7-3.9-6.5-3.5c-2,0.5-3.4,3.9-5.1,6
			c1.9,1.6,3.8,4.6,5.6,4.5C248.1,448,250.1,445.2,252.2,443.6z"/>
		<path class="st0" d="M315.2,437.9c-8,0-15.5,0-23,0c-1-3.1-2-6-3.4-10c7.9,0,15.5-0.7,22.9,0.2
			C316.8,428.8,314.4,434.1,315.2,437.9z"/>
		<path d="M373.9,358.5c-12.6,0-23.8,0-36,0c0-11.2-0.1-22,0.1-32.9c0-1,2.2-2.7,3.3-2.7c5.9,0.1,11.8,0.3,17.6,1.2
			c1.6,0.2,3.2,2.8,4.2,4.7c3.1,6.2,6.2,12.5,8.8,19C373.2,350.8,373.2,354.3,373.9,358.5z"/>
		<path d="M354.8,377.1c-5.7,0-11.2,0-16.6,0c-0.2-0.6-0.5-1.2-0.7-1.8c1.6-1,3.2-2.7,4.8-2.8C352.5,371.7,352.7,371.8,354.8,377.1z
			"/>
		<path d="M252.2,443.6c-2,1.6-4,4.4-6.1,4.5c-1.8,0.1-3.8-2.9-5.6-4.5c1.7-2.1,3.1-5.5,5.1-6c1.8-0.5,4.3,2.2,6.5,3.5
			C252.1,441.9,252.1,442.8,252.2,443.6z"/>
	</g>
</g>
<line class="st1" x1="190" y1="359.5" x2="311" y2="359.5"/>
<line class="st1" x1="174.5" y1="307" x2="176.9" y2="464"/>
<text transform="matrix(1.2691 0 0 1 233.8262 347.3024)" class="st2 st3">5 ft </text>
<text transform="matrix(1.2691 0 0 1 93.6777 399.6012)" class="st2 st3">5.5 ft </text>
<ellipse cx="420.5" cy="439.7" rx="20.5" ry="25.2"/>
<ellipse class="st4" cx="419.8" cy="440.4" rx="11.8" ry="14.6"/>
<rect x="414.6" y="436.1" transform="matrix(0.8396 -0.5432 0.5432 0.8396 -172.2905 298.621)" class="st5" width="9.8" height="9.8"/>
</svg>
