<?xml version="1.0" encoding="utf-8"?>
<!-- Generator: Adobe Illustrator 25.0.0, SVG Export Plug-In . SVG Version: 6.00 Build 0)  -->
<svg version="1.1" id="Layer_1" xmlns="http://www.w3.org/2000/svg" xmlns:xlink="http://www.w3.org/1999/xlink" x="0px" y="0px"
	 viewBox="0 0 595.28 841.89" style="enable-background:new 0 0 595.28 841.89;" xml:space="preserve">
<style type="text/css">
	.st0{fill:#FFFFFF;}
	.st1{fill:#FFFFFF;stroke:#000000;stroke-miterlimit:10;}
	.st2{font-family:'MyriadPro-Regular';}
	.st3{font-size:20.4465px;}
</style>
<g>
	<g>
		<path class="st0" d="M127.66,510.54c0-72.86,0-145.73,0-218.59c151.97,0,303.94,0,455.91,0c0,82.41,0,164.81,0,247.22
			c-151.97,0-303.94,0-455.91,0c0-8.67,0-17.35,0-26.02c4.78-2.36,6.31-0.17,6.22,4.74c-0.05,2.7,0.31,5.41,0.48,8.11
			c0.64-0.05,1.28-0.1,1.93-0.15c0-3.14-0.51-6.41,0.19-9.37c0.42-1.75,2.75-3,4.22-4.47c0.98,1.43,2.6,2.76,2.82,4.31
			c0.44,3.16,0.13,6.43,0.13,9.66c0.82-0.04,1.63-0.07,2.45-0.11c0-3.45,0.19-6.92-0.04-10.36c-0.36-5.44-2.7-6.81-7.79-5.23
			c-1.31,0.41-2.87-0.19-4.31-0.15C131.86,510.18,129.76,510.39,127.66,510.54z M204.69,510.99c119.12,0,236.98,0,354.83,0
			c0.09-0.76,0.17-1.52,0.26-2.29c-2.94-0.48-5.88-1.37-8.83-1.39c-18.48-0.1-36.95,0.01-55.43,0.02c-1.41,0-2.82-0.25-2.65-0.23
			c5.38-7.85,10.85-15.82,17.32-25.24c9.95,0,22.26,0.24,34.56-0.07c12.02-0.3,21.34-15.57,15.01-26.04
			c-3.44-5.68-3.12-10.8-3.26-16.39c-0.21-8.23,0.59-16.55-0.25-24.7c-0.81-7.81-1.62-16.35-5.13-22.99
			c-9.83-18.64-20.9-36.56-31.82-54.54c-3.63-5.98-9.58-8.68-16.34-8.71c-16.43-0.08-32.86-0.08-49.28,0
			c-7.91,0.04-11,3.04-12.38,11.13c-0.23,1.35-1.45,2.52-2.21,3.77c-0.74-1.27-2.03-2.49-2.11-3.8c-0.26-4.54,0.09-9.11-0.15-13.65
			c-0.26-5.05-1.87-7.97-7.85-7.95c-89.53,0.24-179.06,0.25-268.6,0.09c-5.44-0.01-6.96,1.55-6.93,7.28
			c0.23,37.3,0.21,74.59,0.01,111.89c-0.03,5.78,0.04,10.41,8.21,9.56c-1.36,4.51-2.11,8.29-3.61,11.7
			c-4.5,10.22-0.72,16.88,9.91,16.91c15.95,0.03,31.9,0.01,48.13,0.01c0.51,14.21,6.71,23.44,16.63,31.88
			c-6.08,0-10.77-0.44-15.35,0.13C213.32,507.88,208,504.74,204.69,510.99z M163.84,519.26c0.51-0.84,1.03-1.68,1.54-2.51
			c-2.49-2.46-4.76-6.45-7.53-6.88c-2.16-0.33-5.96,3.26-7.18,6.02c-1.75,3.95-0.13,8.41,3.99,10.06c2.48,0.99,5.62,0.14,8.46,0.12
			c0.03-0.84,0.06-1.68,0.09-2.52c-3.91,0.83-8.27,2.83-9.72-3.76C157.15,519.61,160.5,519.43,163.84,519.26z M170.03,525.86
			c0.66,0.01,1.32,0.02,1.97,0.03c0-3.1-0.44-6.3,0.17-9.27c0.36-1.77,2.37-3.16,3.63-4.73c1.21,1.59,3.06,3.01,3.49,4.81
			c0.7,2.96,0.48,6.16,0.64,9.27c4.1-14.4,2.35-16.76-9.9-15.18C170.03,515.83,170.03,520.84,170.03,525.86z M186.68,509.6
			c0.47,4.8,0.91,7.97,1.08,11.16c0.29,5.51,0.73,5.87,6.18,4.33c-4.68-3.18-4.92-10.61-1.03-13.67c-1.34-2.08-2.59-4.02-3.86-5.99
			C187.92,507.41,186.87,509.27,186.68,509.6z"/>
		<path d="M127.66,510.54c2.1-0.14,4.2-0.35,6.3-0.4c1.44-0.04,3.01,0.56,4.31,0.15c5.09-1.58,7.42-0.21,7.79,5.23
			c0.23,3.44,0.04,6.9,0.04,10.36c-0.82,0.04-1.63,0.07-2.45,0.11c0-3.23,0.31-6.5-0.13-9.66c-0.22-1.55-1.84-2.88-2.82-4.31
			c-1.47,1.47-3.8,2.72-4.22,4.47c-0.7,2.95-0.19,6.23-0.19,9.37c-0.64,0.05-1.28,0.1-1.93,0.15c-0.17-2.7-0.53-5.41-0.48-8.11
			c0.09-4.92-1.44-7.11-6.22-4.74C127.66,512.27,127.66,511.4,127.66,510.54z"/>
		<path d="M204.69,510.99c3.31-6.25,8.63-3.11,12.7-3.61c4.58-0.57,9.27-0.13,15.35-0.13c-9.92-8.44-16.12-17.68-16.63-31.88
			c-16.24,0-32.19,0.02-48.13-0.01c-10.63-0.02-14.41-6.69-9.91-16.91c1.5-3.41,2.25-7.19,3.61-11.7c-8.17,0.86-8.24-3.77-8.21-9.56
			c0.2-37.3,0.22-74.59-0.01-111.89c-0.03-5.72,1.49-7.29,6.93-7.28c89.53,0.16,179.06,0.15,268.6-0.09
			c5.98-0.02,7.59,2.9,7.85,7.95c0.23,4.54-0.11,9.11,0.15,13.65c0.08,1.31,1.37,2.54,2.11,3.8c0.76-1.25,1.98-2.42,2.21-3.77
			c1.38-8.09,4.47-11.09,12.38-11.13c16.43-0.08,32.86-0.08,49.28,0c6.76,0.03,12.71,2.73,16.34,8.71
			c10.92,17.98,21.98,35.9,31.82,54.54c3.5,6.64,4.32,15.17,5.13,22.99c0.84,8.14,0.04,16.46,0.25,24.7
			c0.14,5.59-0.17,10.71,3.26,16.39c6.33,10.46-2.99,25.74-15.01,26.04c-12.3,0.3-24.6,0.07-34.56,0.07
			c-6.46,9.42-11.93,17.39-17.32,25.24c-0.17-0.02,1.24,0.23,2.65,0.23c18.48-0.01,36.95-0.12,55.43-0.02
			c2.94,0.02,5.88,0.9,8.83,1.39c-0.09,0.76-0.17,1.52-0.26,2.29C441.67,510.99,323.82,510.99,204.69,510.99z M158.38,410.01
			c90.65,0,181.05,0,271.48,0c0-29.08,0-57.79,0-86.57c-90.71,0-180.95,0-271.48,0C158.38,352.31,158.38,380.85,158.38,410.01z
			 M429.89,415.06c-90.77,0-181,0-271.34,0c0,9.48,0,18.47,0,28.21c90.67,0,180.88,0,271.34,0
			C429.89,433.86,429.89,424.48,429.89,415.06z M551.98,439.64c-11.58-1.53-11.58-1.53-11.53-13.53c0-1.08-0.37-2.43,0.09-3.2
			c1.29-2.11,3.01-5.71,4.43-5.65c7.61,0.36,7.18-4.81,6.47-9.8c-0.6-4.2-1.43-8.68-3.38-12.29c-8.9-16.47-18.19-32.7-27.42-48.98
			c-5.79-10.21-14.04-14.56-25.62-13.84c-13.49,0.84-27.07,0.08-40.6,0.06c-7.52-0.01-8.86,1.42-8.87,9.47
			c-0.02,32.07-0.01,64.13,0.01,96.2c0,1.67,0.22,3.34,0.36,5.48c2.68,0.17,5.1,0.45,7.52,0.45c10.26,0.01,20.53,0.28,30.77-0.2
			c8.91-0.42,15.28,3.79,20.61,10.64c1.02,1.31,1.96,2.69,2.93,4.04c0.08-0.63,0.17-1.26,0.25-1.89c14.74,0,29.48,0,43.98,0
			C551.98,449.88,551.98,444.95,551.98,439.64z M262.03,507.26c66.35,0,132.14,0,199.51,0c-10.98-7.61-14.33-18.07-15.08-30.13
			c-56.43,0-112.42,0-168.38,0C276.48,492.34,274.81,495.47,262.03,507.26z M475.51,496.27c10.25,0.01,17.34-7.57,17.2-18.36
			c-0.1-7.3-7.82-14.94-15.15-15c-10.02-0.07-17.03,6.95-16.95,16.96C460.68,488.59,467.65,496.26,475.51,496.27z M262.39,479.62
			c-0.04-9.5-6.53-16.63-15.23-16.74c-9.34-0.11-16.92,7.57-16.65,16.86c0.23,7.92,9.55,16.29,18.03,16.21
			C256.66,495.89,262.43,489.07,262.39,479.62z M552.06,419.93c-8.35,1.64-9.01,2.49-7.75,12.02c0.2,1.55,2.48,3.69,3.97,3.86
			c1.12,0.12,3.38-2.34,3.6-3.9C552.43,428.18,552.06,424.3,552.06,419.93z"/>
		<path d="M163.84,519.26c-3.35,0.17-6.69,0.35-10.35,0.54c1.44,6.58,5.81,4.59,9.72,3.76c-0.03,0.84-0.06,1.68-0.09,2.52
			c-2.84,0.02-5.98,0.87-8.46-0.12c-4.12-1.66-5.74-6.11-3.99-10.06c1.22-2.76,5.03-6.36,7.18-6.02c2.77,0.43,5.04,4.42,7.53,6.88
			C164.87,517.58,164.36,518.42,163.84,519.26z"/>
		<path d="M170.03,525.86c0-5.01,0-10.02,0-15.07c12.25-1.57,14,0.78,9.9,15.18c-0.17-3.1,0.06-6.31-0.64-9.27
			c-0.42-1.8-2.28-3.22-3.49-4.81c-1.27,1.56-3.27,2.96-3.63,4.73c-0.61,2.96-0.17,6.17-0.17,9.27
			C171.34,525.88,170.69,525.87,170.03,525.86z"/>
		<path d="M186.68,509.6c0.19-0.33,1.24-2.18,2.37-4.17c1.27,1.97,2.52,3.91,3.86,5.99c-3.89,3.06-3.66,10.48,1.03,13.67
			c-5.45,1.54-5.89,1.19-6.18-4.33C187.58,517.57,187.15,514.4,186.68,509.6z"/>
		<path class="st0" d="M158.38,410.01c0-29.16,0-57.7,0-86.57c90.53,0,180.77,0,271.48,0c0,28.78,0,57.49,0,86.57
			C339.44,410.01,249.04,410.01,158.38,410.01z"/>
		<path class="st0" d="M429.89,415.06c0,9.42,0,18.8,0,28.21c-90.46,0-180.67,0-271.34,0c0-9.74,0-18.73,0-28.21
			C248.9,415.06,339.13,415.06,429.89,415.06z"/>
		<path class="st0" d="M551.98,439.64c0,5.31,0,10.24,0,16.95c-14.51,0-29.25,0-43.98,0c-0.08,0.63-0.17,1.26-0.25,1.89
			c-0.97-1.35-1.91-2.73-2.93-4.04c-5.33-6.86-11.69-11.06-20.61-10.64c-10.24,0.48-20.51,0.21-30.77,0.2
			c-2.42,0-4.84-0.28-7.52-0.45c-0.15-2.13-0.36-3.81-0.36-5.48c-0.02-32.07-0.02-64.13-0.01-96.2c0-8.05,1.35-9.48,8.87-9.47
			c13.54,0.02,27.12,0.77,40.6-0.06c11.58-0.72,19.83,3.63,25.62,13.84c9.22,16.28,18.52,32.51,27.42,48.98
			c1.95,3.62,2.78,8.09,3.38,12.29c0.72,4.98,1.14,10.15-6.47,9.8c-1.42-0.07-3.14,3.54-4.43,5.65c-0.47,0.77-0.09,2.12-0.09,3.2
			C540.4,438.11,540.4,438.11,551.98,439.64z M465.31,341.82c0,10.3,0,18.95,0,27.59c0,18.87,0.01,18.46,18.02,19.04
			c6.04,0.2,13.63,1.24,17.66,5.16c8.06,7.85,16.26,8.62,25.94,6.33c7.24-1.71,9.55-4.61,6.23-11.81
			c-6.6-14.32-14.02-28.22-21.47-42.08c-1.14-2.11-4.18-4.3-6.39-4.35C492.11,341.4,478.9,341.71,465.31,341.82z M471.53,415.15
			c0,0.09,0,0.18,0,0.27c0.82,0,1.82,0.32,2.41-0.06c1.75-1.13,3.33-2.55,4.97-3.85c-1.53-1.22-2.92-3.09-4.62-3.51
			c-2.3-0.57-4.97-0.45-7.25,0.23c-1.23,0.37-2.5,2.45-2.73,3.93c-0.12,0.81,1.74,2.38,2.98,2.88
			C468.54,415.54,470.11,415.15,471.53,415.15z"/>
		<path class="st0" d="M262.03,507.26c12.78-11.79,14.45-14.92,16.04-30.13c55.96,0,111.95,0,168.38,0
			c0.76,12.06,4.1,22.52,15.08,30.13C394.17,507.26,328.37,507.26,262.03,507.26z"/>
		<path class="st0" d="M475.51,496.27c-7.86-0.01-14.83-7.68-14.91-16.4c-0.08-10.01,6.93-17.03,16.95-16.96
			c7.33,0.05,15.05,7.7,15.15,15C492.86,488.71,485.76,496.29,475.51,496.27z M485.23,479.73c-0.64-4.15-2.58-7.4-7.73-7.38
			c-4.41,0.01-7.79,1.32-7.68,6.77c0.09,4.73,1.48,8.55,6.98,8.44C481.37,487.47,484.77,485.89,485.23,479.73z"/>
		<path class="st0" d="M262.39,479.62c0.04,9.45-5.73,16.27-13.84,16.34c-8.48,0.08-17.8-8.3-18.03-16.21
			c-0.27-9.3,7.31-16.98,16.65-16.86C255.86,462.99,262.34,470.12,262.39,479.62z M247.37,487.68c3.32-0.08,7.34-0.37,8.19-5.67
			c0.61-3.82-5.47-10.01-9.74-9.9c-4.23,0.11-6.81,2.65-7.22,7.15C238.17,483.92,241.54,487.3,247.37,487.68z"/>
		<path class="st0" d="M552.06,419.93c0,4.37,0.36,8.25-0.17,11.98c-0.22,1.56-2.49,4.02-3.6,3.9c-1.49-0.17-3.77-2.31-3.97-3.86
			C543.06,422.43,543.71,421.57,552.06,419.93z"/>
		<path d="M465.31,341.82c13.59-0.11,26.79-0.41,39.99-0.11c2.21,0.05,5.26,2.24,6.39,4.35c7.45,13.86,14.87,27.77,21.47,42.08
			c3.32,7.19,1.01,10.09-6.23,11.81c-9.69,2.29-17.88,1.51-25.94-6.33c-4.03-3.92-11.62-4.97-17.66-5.16
			c-18.01-0.58-18.02-0.17-18.02-19.04C465.31,360.77,465.31,352.12,465.31,341.82z"/>
		<path d="M471.53,415.15c-1.43,0-3,0.39-4.24-0.11c-1.24-0.5-3.1-2.07-2.98-2.88c0.23-1.48,1.5-3.56,2.73-3.93
			c2.28-0.68,4.95-0.8,7.25-0.23c1.71,0.42,3.09,2.29,4.62,3.51c-1.65,1.3-3.23,2.72-4.97,3.85c-0.59,0.38-1.6,0.06-2.41,0.06
			C471.53,415.33,471.53,415.24,471.53,415.15z"/>
		<path d="M485.23,479.73c-0.46,6.16-3.86,7.74-8.43,7.83c-5.51,0.11-6.89-3.71-6.98-8.44c-0.11-5.45,3.27-6.76,7.68-6.77
			C482.65,472.33,484.59,475.58,485.23,479.73z"/>
		<path d="M247.37,487.68c-5.83-0.38-9.2-3.77-8.77-8.42c0.41-4.51,2.99-7.04,7.22-7.15c4.27-0.11,10.35,6.08,9.74,9.9
			C254.72,487.31,250.69,487.6,247.37,487.68z"/>
	</g>
</g>
<rect x="8.83" y="478.33" class="st0" width="190.81" height="65.54"/>
<line class="st1" x1="133.45" y1="318.15" x2="135.1" y2="466.21"/>
<line class="st1" x1="218.3" y1="308.37" x2="331.67" y2="308.37"/>
<text transform="matrix(1.2524 0 0 1 255.7393 302.957)" class="st2 st3">6 ft </text>
<text transform="matrix(1.2524 0 0 1 79.04 394.0332)" class="st2 st3">14 ft </text>
</svg>
