<?xml version="1.0" encoding="UTF-8" standalone="no"?>
<svg
   xmlns:dc="http://purl.org/dc/elements/1.1/"
   xmlns:cc="http://creativecommons.org/ns#"
   xmlns:rdf="http://www.w3.org/1999/02/22-rdf-syntax-ns#"
   xmlns:svg="http://www.w3.org/2000/svg"
   xmlns="http://www.w3.org/2000/svg"
   viewBox="0 0 2666.6667 2666.6667"
   height="2666.6667"
   width="2666.6667"
   xml:space="preserve"
   id="svg2"
   version="1.1"><metadata
     id="metadata8"><rdf:RDF><cc:Work
         rdf:about=""><dc:format>image/svg+xml</dc:format><dc:type
           rdf:resource="http://purl.org/dc/dcmitype/StillImage" /></cc:Work></rdf:RDF></metadata><defs
     id="defs6"><clipPath
       id="clipPath22"
       clipPathUnits="userSpaceOnUse"><path
         id="path20"
         d="M 0,2000 H 2000 V 0 H 0 Z" /></clipPath></defs><g
     transform="matrix(1.3333333,0,0,-1.3333333,0,2666.6667)"
     id="g10"><g
       transform="translate(402.287,1063.6621)"
       id="g12"><path
         id="path14"
         style="fill:#000000;fill-opacity:1;fill-rule:nonzero;stroke:none"
         d="m 0,0 h 90.221 v -248.107 h 67.666 V 0 h 90.22 V 67.665 H 0 Z" /></g><g
       id="g16"><g
         clip-path="url(#clipPath22)"
         id="g18"><g
           transform="translate(672.9495,973.4409)"
           id="g24"><path
             id="path26"
             style="fill:#000000;fill-opacity:1;fill-rule:nonzero;stroke:none"
             d="M 0,0 V -157.886 H 67.666 V 0 c 0,24.959 8.796,46.238 26.389,63.832 17.593,17.592 38.869,26.389 63.831,26.389 v 67.665 c -43.608,0 -80.824,-15.414 -111.648,-46.238 C 15.412,80.822 0,43.606 0,0" /></g><path
           id="path28"
           style="fill:#000000;fill-opacity:1;fill-rule:nonzero;stroke:none"
           d="m 1530.048,815.555 h 67.665 v 383.439 h -67.665 z" /><g
           transform="translate(954.3221,863.6684)"
           id="g30"><path
             id="path32"
             style="fill:#000000;fill-opacity:1;fill-rule:nonzero;stroke:none"
             d="m 0,0 c -17.304,0 -31.331,-14.027 -31.331,-31.331 0,-9.549 4.277,-18.094 11.014,-23.841 h -25.879 v -7.45 h 44.608 v 0 c 0.526,-0.026 1.055,-0.04 1.588,-0.04 17.303,0 31.331,14.028 31.331,31.331 C 31.331,-14.027 17.303,0 0,0" /></g><g
           transform="translate(1075.1093,909.6093)"
           id="g34"><path
             id="path36"
             style="fill:#ff8b00;fill-opacity:1;fill-rule:nonzero;stroke:none"
             d="m 0,0 c -17.594,-17.592 -38.873,-26.389 -63.832,-26.389 -24.962,0 -46.237,8.797 -63.831,26.389 -17.592,17.594 -26.389,38.87 -26.389,63.832 0,24.959 8.797,46.238 26.389,63.831 17.594,17.593 38.869,26.39 63.831,26.39 24.959,0 46.238,-8.797 63.832,-26.39 C 17.593,110.07 26.389,88.791 26.389,63.832 26.389,38.87 17.593,17.594 0,0 m -63.832,221.718 c -43.608,0 -80.825,-15.415 -111.648,-46.238 -30.826,-30.826 -46.238,-68.042 -46.238,-111.648 0,-43.609 15.412,-80.826 46.238,-111.649 4.112,-4.112 8.342,-7.941 12.681,-11.505 6.975,16.303 23.157,27.728 42.012,27.728 25.227,0 45.678,-20.451 45.678,-45.678 0,-5.708 -1.056,-11.167 -2.969,-16.205 4.672,-0.377 9.418,-0.578 14.246,-0.578 9.989,0 19.631,0.828 28.945,2.44 -1.492,4.512 -2.311,9.331 -2.311,14.343 0,25.227 20.451,45.678 45.678,45.678 25.228,0 45.678,-20.451 45.678,-45.678 0,-5.928 -1.141,-11.585 -3.197,-16.783 H 94.055 V 63.832 c 0,43.606 -15.415,80.822 -46.238,111.648 -30.827,30.823 -68.043,46.238 -111.649,46.238" /></g><g
           transform="translate(1083.5892,863.6684)"
           id="g38"><path
             id="path40"
             style="fill:#000000;fill-opacity:1;fill-rule:nonzero;stroke:none"
             d="m 0,0 c -17.304,0 -31.331,-14.027 -31.331,-31.331 0,-9.549 4.277,-18.094 11.014,-23.841 h -24.291 v -7.45 H -1.58 c 0.523,-0.026 1.05,-0.04 1.58,-0.04 17.304,0 31.331,14.028 31.331,31.331 C 31.331,-14.027 17.304,0 0,0" /></g><g
           transform="translate(1195.6635,1137.9263)"
           id="g42"><path
             id="path44"
             style="fill:#000000;fill-opacity:1;fill-rule:nonzero;stroke:none"
             d="m 0,0 v -175.028 c -0.005,-21.159 4.308,-41.496 12.112,-59.933 11.712,-27.671 31.184,-51.105 55.735,-67.698 12.278,-8.295 25.841,-14.879 40.331,-19.385 14.485,-4.507 29.899,-6.929 45.764,-6.927 21.159,-0.005 41.496,4.308 59.933,12.113 27.671,11.711 51.105,31.184 67.698,55.735 8.295,12.278 14.879,25.841 19.385,40.33 4.508,14.485 6.929,29.899 6.927,45.765 V 0 h -70 v -175.028 c -0.005,-11.687 -2.349,-22.64 -6.582,-32.663 -6.345,-15.02 -17.036,-27.907 -30.452,-36.964 -6.706,-4.53 -14.077,-8.103 -21.934,-10.548 -7.861,-2.442 -16.207,-3.766 -24.975,-3.768 -11.687,0.006 -22.639,2.349 -32.663,6.583 -15.019,6.344 -27.906,17.035 -36.964,30.451 -4.53,6.706 -8.103,14.077 -10.547,21.934 -2.443,7.861 -3.766,16.207 -3.768,24.975 L 70,0 Z" /></g></g></g></g></svg>