<?xml version="1.0" encoding="utf-8"?>
<!-- Generator: Adobe Illustrator 25.0.0, SVG Export Plug-In . SVG Version: 6.00 Build 0)  -->
<svg version="1.1" id="Layer_1" xmlns="http://www.w3.org/2000/svg" xmlns:xlink="http://www.w3.org/1999/xlink" x="0px" y="0px"
	 viewBox="0 0 595.28 841.89" style="enable-background:new 0 0 595.28 841.89;" xml:space="preserve">
<style type="text/css">
	.st0{fill:#FFFFFF;}
	.st1{fill:#FFFFFF;stroke:#000000;stroke-miterlimit:10;}
	.st2{font-family:'MyriadPro-Regular';}
	.st3{font-size:25.6694px;}
</style>
<g>
	<g>
		<path class="st0" d="M143,291c111.55,0,223.1,0,334.65,0c0,71.31,0,142.62,0,213.93c-111.55,0-223.1,0-334.65,0
			C143,433.62,143,362.31,143,291z M165.18,489.79c0.01,0.76,0.02,1.53,0.02,2.29c97.28,0,194.57,0,291.85,0
			c0.01-0.77,0.03-1.53,0.04-2.3c-20.27,0-40.54,0-60.81,0c6.05-5.01,10.43-10.73,12.72-18.58c1.02-3.48,2.39-4.19,5.07-4.16
			c11.18,0.14,22.37,0.08,33.55-0.17c2.8-0.06,5.68-0.69,8.35-1.77c5.59-2.27,11.71-18.13,8.3-23.61
			c-3.53-5.68-2.32-11.28-2.65-17.02c-0.22-3.81,0.03-7.67-0.06-11.5c-0.29-12.46-6.31-22.83-15.32-27.43
			c-2.11-1.07-4.1-3.43-5.45-5.83c-6.48-11.53-12.49-23.5-19.11-34.89c-10.9-18.74-25.19-29.24-44.16-28.17
			c-8.53,0.48-17.1,0.08-25.65,0.05c-10.5-0.05-12.12,1.92-12.13,15.04c-0.01,17.33,0,34.66,0,52.56c-1.9-0.12-3.33-0.21-5.46-0.35
			c0-20.02,0-39.5,0-59.14c-60.14,0-119.56,0-179.5,0c0,2.56,0,4.75,0,6.95c0,16.01,0.04,32.03-0.05,48.04
			c-0.01,2-0.68,4.02-1.2,5.97c-0.56,2.15-1.85,4.21-1.87,6.33c-0.14,14.66-0.01,29.32-0.01,43.98c0,1.23,0.02,2.62-0.4,3.67
			c-4.19,10.57-1.16,16.45,7.82,17.62c8.13,1.06,17.4-3.41,24.11,6.52c0.34,0.5,1.36,0.28,2.07,0.37c3.52,0.48,7.06,0.79,10.56,1.51
			c1.21,0.25,3.12,1.24,3.31,2.31c1.66,8.97,6.05,15.35,13.2,21.68C195.51,489.79,180.35,489.79,165.18,489.79z"/>
		<path d="M165.18,489.79c15.17,0,30.33,0,47.14,0c-7.15-6.33-11.54-12.72-13.2-21.68c-0.2-1.07-2.1-2.06-3.31-2.31
			c-3.49-0.72-7.03-1.03-10.56-1.51c-0.71-0.1-1.73,0.13-2.07-0.37c-6.71-9.94-15.98-5.47-24.11-6.52
			c-8.98-1.17-12.01-7.05-7.82-17.62c0.42-1.05,0.4-2.44,0.4-3.67c-0.01-14.66-0.13-29.32,0.01-43.98c0.02-2.12,1.31-4.18,1.87-6.33
			c0.51-1.95,1.19-3.98,1.2-5.97c0.1-16.01,0.05-32.03,0.05-48.04c0-2.2,0-4.4,0-6.95c59.94,0,119.36,0,179.5,0
			c0,19.65,0,39.12,0,59.14c2.13,0.13,3.56,0.23,5.46,0.35c0-17.9-0.01-35.23,0-52.56c0.01-13.12,1.63-15.08,12.13-15.04
			c8.55,0.04,17.11,0.43,25.65-0.05c18.97-1.07,33.26,9.43,44.16,28.17c6.62,11.39,12.63,23.36,19.11,34.89
			c1.35,2.4,3.34,4.75,5.45,5.83c9.02,4.6,15.04,14.96,15.32,27.43c0.09,3.83-0.16,7.69,0.06,11.5c0.33,5.74-0.88,11.34,2.65,17.02
			c3.41,5.48-2.71,21.35-8.3,23.61c-2.66,1.08-5.55,1.71-8.35,1.77c-11.18,0.25-22.37,0.31-33.55,0.17
			c-2.68-0.03-4.06,0.68-5.07,4.16c-2.29,7.84-6.68,13.56-12.72,18.58c20.27,0,40.54,0,60.81,0c-0.01,0.77-0.03,1.53-0.04,2.3
			c-97.28,0-194.57,0-291.85,0C165.2,491.32,165.19,490.56,165.18,489.79z M359.95,438.78c0.55-0.48,1.2-0.85,1.65-1.45
			c15.55-20.5,31.13-20.95,47.51-1.62c1.47,1.74,4.05,2.73,6.12,2.77c11.74,0.26,23.5,0.13,35.24,0.13c2.57,0,5.14,0,7.64,0
			c0-3.54,0-5.94,0-7.78c-3.31-3.74-10.71,2.71-10.37-7.86c0.14-4.24-0.68-9.29,0.88-12.45c1.26-2.56,5.41-2.85,8.52-4.26
			c-2.74-7.86-6.38-14.58-13.64-17.13c-1.66-0.58-3.35-2.39-4.39-4.22c-7.57-13.3-14.73-26.98-22.5-40.08
			c-9.67-16.31-22.57-24.79-39.01-24.14c-9.6,0.38-19.23,0.28-28.83-0.03c-4.4-0.14-5.98,1.75-5.93,7.38
			c0.18,20.96,0.08,41.93,0.05,62.89c-0.01,4.28-0.24,8.55-0.25,12.83c-0.03,16.12-0.01,32.24-0.01,48.92c4.62,0,9.48,0,13.9,0
			c1.26-4.93,2.44-9.54,3.62-14.14L359.95,438.78z M155.58,438.61c11.81,0,23.2-0.3,34.57,0.15c4.26,0.17,6.92-1.6,9.04-5.96
			c3.08-6.34,7.39-10.79,13.09-13.09c12.57-5.08,26.57,0.15,35.42,13.86c2.35,3.64,4.67,5.2,8.47,5.17
			c25.29-0.23,50.59-0.11,75.88-0.13c1.72,0,3.44-0.2,5.24-0.31c0-16.61,0-32.73,0-48.82c-60.66,0-120.99,0-181.7,0
			C155.58,405.75,155.58,421.66,155.58,438.61z M371.78,489.11c-2.75-3.69-6.59-6.56-7.5-10.51c-2.77-11.94-9.07-13.76-17.35-12.2
			c-1.73,0.32-3.55-0.09-5.33-0.11c-30.4-0.47-60.79-0.83-91,4.7c-0.94,0.17-2.13,0.46-2.7,1.27c-4.03,5.7-7.94,11.54-11.56,16.86
			C280.86,489.11,326.24,489.11,371.78,489.11z M202.66,367.14c-14.96,0-29.28,0-43.99,0c0,5.73,0,11.2,0,16.86
			c14.75,0,29.35,0,43.99,0C202.66,378.2,202.66,372.89,202.66,367.14z M158.63,329.22c0,5.69,0,10.53,0,15.22
			c14.96,0,29.44,0,43.94,0c0-5.41,0-10.25,0-15.22C187.72,329.22,173.22,329.22,158.63,329.22z M249.96,384.06
			c13.63,0,26.84,0,40.19,0c0-5.86,0-11.3,0-16.65c-13.65,0-26.86,0-40.19,0C249.96,373.09,249.96,378.25,249.96,384.06z
			 M207.15,384.1c12.99,0,25.53,0,38.14,0c0-5.86,0-11.33,0-16.72c-12.94,0-25.48,0-38.14,0
			C207.15,373.04,207.15,378.21,207.15,384.1z M249.97,344.32c13.62,0,26.95,0,40.21,0c0-5.48,0-10.3,0-15.04
			c-13.63,0-26.87,0-40.21,0C249.97,334.51,249.97,339.35,249.97,344.32z M330.95,367.31c-12.57,0-24.57,0-36.85,0
			c0,5.87,0,11.32,0,16.59c12.52,0,24.66,0,36.85,0C330.95,378.17,330.95,373.04,330.95,367.31z M238.07,459.94
			c-0.09-10.01-6.2-18.53-13.28-18.53c-9.73,0.01-15.38,6.4-15.32,17.36c0.05,10.41,6.68,19.64,13.94,19.44
			C231.97,477.98,238.16,470.26,238.07,459.94z M384.92,441.48c-7.44-0.05-14.79,8.65-14.86,17.6c-0.09,10.5,5.74,18.52,13.54,18.64
			c8.54,0.13,15.92-7.73,15.79-16.83C399.23,450.28,392.72,441.54,384.92,441.48z M245.5,329.26c-13.01,0-25.56,0-38.08,0
			c-1.38,15.68-1.38,15.68,10.34,15.69c9.2,0,18.39,0,27.75,0C245.5,339.28,245.5,334.58,245.5,329.26z M202.61,349.73
			c-14.97,0-29.46,0-44.09,0c0,4.49,0,8.44,0,12.67c14.8,0,29.3,0,44.09,0C202.61,358.04,202.61,354.08,202.61,349.73z
			 M294.17,329.17c0,5.54,0,10.36,0,15.3c12.44,0,24.44,0,36.63,0c0-5.35,0-10.18,0-15.3C318.44,329.17,306.41,329.17,294.17,329.17
			z M290.3,349.66c-13.66,0-26.91,0-40.07,0c0,4.6,0,8.73,0,12.78c13.57,0,26.68,0,40.07,0C290.3,358.11,290.3,354.14,290.3,349.66z
			 M207.22,362.41c13.02,0,25.52,0,38.12,0c0-4.51,0-8.63,0-12.85c-12.85,0-25.35,0-38.12,0
			C207.22,353.88,207.22,357.83,207.22,362.41z M294.01,362.39c12.41,0,24.54,0,36.73,0c0-4.52,0-8.63,0-12.68
			c-12.52,0-24.65,0-36.73,0C294.01,354.21,294.01,358.17,294.01,362.39z M249.32,465.73c10.75-1.53,20.79-2.96,30.83-4.39
			c-0.05-0.67-0.1-1.33-0.15-2c-10.14,0-20.27,0-30.69,0C249.32,461.2,249.32,462.87,249.32,465.73z M457.86,412.18
			c-6.75-1.3-7.94,1.64-5.57,13.76C458.97,426.75,459.44,425.59,457.86,412.18z"/>
		<path class="st0" d="M155.58,438.61c0-16.96,0-32.87,0-49.14c60.71,0,121.04,0,181.7,0c0,16.09,0,32.21,0,48.82
			c-1.79,0.11-3.52,0.31-5.24,0.31c-25.3,0.02-50.59-0.1-75.88,0.13c-3.8,0.03-6.12-1.53-8.47-5.17
			c-8.85-13.71-22.85-18.94-35.42-13.86c-5.69,2.3-10,6.76-13.09,13.09c-2.13,4.37-4.78,6.13-9.04,5.96
			C178.78,438.31,167.4,438.61,155.58,438.61z"/>
		<path class="st0" d="M360.15,438.53c-1.18,4.61-2.36,9.22-3.62,14.14c-4.42,0-9.28,0-13.9,0c0-16.68-0.02-32.8,0.01-48.92
			c0.01-4.28,0.24-8.55,0.25-12.83c0.03-20.96,0.13-41.93-0.05-62.89c-0.05-5.63,1.53-7.52,5.93-7.38
			c9.61,0.31,19.23,0.42,28.83,0.03c16.44-0.65,29.33,7.83,39.01,24.14c7.77,13.1,14.93,26.78,22.5,40.08
			c1.04,1.83,2.73,3.64,4.39,4.22c7.26,2.55,10.91,9.28,13.64,17.13c-3.11,1.41-7.26,1.7-8.52,4.26c-1.55,3.16-0.74,8.21-0.88,12.45
			c-0.34,10.57,7.06,4.12,10.37,7.86c0,1.85,0,4.25,0,7.78c-2.49,0-5.06,0-7.64,0c-11.75,0-23.5,0.13-35.24-0.13
			c-2.08-0.05-4.65-1.04-6.12-2.77c-16.38-19.33-31.97-18.89-47.51,1.62c-0.45,0.6-1.1,0.97-1.65,1.44
			c-0.61-3.53-1.72-7.06-1.74-10.6c-0.22-31.12-0.22-62.24-0.36-93.36c-0.01-2.44-0.59-4.88-0.91-7.32
			c-0.59,0.13-1.19,0.26-1.78,0.4c0,37.12,0,74.23,0,111.39C357.01,439,358.58,438.76,360.15,438.53z M363.21,354.28
			c0.01,0,0.02,0,0.03,0c0,5.19-0.01,10.37,0,15.56c0.03,9.35,0.9,10.68,8.31,10.43c10.69-0.36,20.64,2.9,30.46,8.05
			c4.42,2.32,9.38,3.33,14.17,4.04c4.56,0.67,9.23,0.27,13.85,0.09c1.65-0.06,3.29-0.84,4.93-1.29c-0.5-2.26-0.6-4.86-1.58-6.72
			c-6.48-12.35-12.97-24.71-19.81-36.74c-5.34-9.39-12.34-16.59-21.71-17.79c-8.27-1.07-16.67-0.93-24.99-0.61
			c-1.27,0.05-3.32,3.83-3.49,6.07C362.89,341.62,363.21,347.97,363.21,354.28z M363.99,403.92c4.46,0,9.19,0.18,13.9-0.14
			c1.03-0.07,1.99-1.9,2.98-2.91c-0.93-1.04-1.78-2.83-2.8-3c-3.66-0.6-7.38-0.81-11.08-0.88
			C363.89,396.94,362.48,398.79,363.99,403.92z"/>
		<path class="st0" d="M371.78,489.11c-45.54,0-90.92,0-135.44,0c3.62-5.32,7.53-11.17,11.56-16.86c0.57-0.81,1.76-1.1,2.7-1.27
			c30.2-5.53,60.6-5.17,91-4.7c1.78,0.03,3.6,0.44,5.33,0.11c8.28-1.55,14.59,0.26,17.35,12.2
			C365.19,482.55,369.03,485.42,371.78,489.11z"/>
		<path class="st0" d="M202.66,367.14c0,5.76,0,11.06,0,16.86c-14.64,0-29.24,0-43.99,0c0-5.65,0-11.13,0-16.86
			C173.37,367.14,187.7,367.14,202.66,367.14z"/>
		<path class="st0" d="M158.63,329.22c14.59,0,29.09,0,43.94,0c0,4.97,0,9.81,0,15.22c-14.49,0-28.98,0-43.94,0
			C158.63,339.76,158.63,334.91,158.63,329.22z"/>
		<path class="st0" d="M249.96,384.06c0-5.81,0-10.97,0-16.65c13.33,0,26.54,0,40.19,0c0,5.35,0,10.79,0,16.65
			C276.8,384.06,263.58,384.06,249.96,384.06z"/>
		<path class="st0" d="M207.15,384.1c0-5.89,0-11.06,0-16.72c12.66,0,25.19,0,38.14,0c0,5.39,0,10.86,0,16.72
			C232.68,384.1,220.14,384.1,207.15,384.1z"/>
		<path class="st0" d="M249.97,344.32c0-4.97,0-9.8,0-15.04c13.34,0,26.58,0,40.21,0c0,4.75,0,9.56,0,15.04
			C276.92,344.32,263.59,344.32,249.97,344.32z"/>
		<path class="st0" d="M330.95,367.31c0,5.74,0,10.87,0,16.59c-12.19,0-24.33,0-36.85,0c0-5.27,0-10.71,0-16.59
			C306.39,367.31,318.38,367.31,330.95,367.31z"/>
		<path class="st0" d="M238.07,459.94c0.09,10.32-6.1,18.03-14.66,18.27c-7.27,0.2-13.89-9.03-13.94-19.44
			c-0.06-10.96,5.59-17.35,15.32-17.36C231.87,441.41,237.98,449.94,238.07,459.94z M216.29,460.38c0.06,5.35,3.69,8.74,8.81,8.57
			c4.25-0.14,5.95-3.56,6.07-8.33c0.11-4.54-4.45-8.93-8.8-8.44C218.41,452.63,216.61,456,216.29,460.38z"/>
		<path class="st0" d="M384.92,441.48c7.79,0.05,14.31,8.8,14.46,19.41c0.13,9.1-7.25,16.96-15.79,16.83
			c-7.8-0.12-13.63-8.15-13.54-18.64C370.14,450.14,377.49,441.44,384.92,441.48z M392.16,460.22c-0.04-4.85-3.04-8.12-7.5-8.16
			c-3.99-0.04-7.46,3.94-7.4,8.49c0.06,4.83,3.27,8.29,7.53,8.13C389.15,468.51,392.2,465.01,392.16,460.22z"/>
		<path class="st0" d="M245.5,329.26c0,5.32,0,10.01,0,15.69c-9.36,0-18.55,0-27.75,0c-11.71-0.01-11.71-0.01-10.34-15.69
			C219.94,329.26,232.5,329.26,245.5,329.26z"/>
		<path class="st0" d="M202.61,349.73c0,4.35,0,8.31,0,12.67c-14.79,0-29.29,0-44.09,0c0-4.22,0-8.18,0-12.67
			C173.15,349.73,187.64,349.73,202.61,349.73z"/>
		<path class="st0" d="M294.17,329.17c12.24,0,24.28,0,36.63,0c0,5.12,0,9.95,0,15.3c-12.19,0-24.19,0-36.63,0
			C294.17,339.53,294.17,334.71,294.17,329.17z"/>
		<path class="st0" d="M290.3,349.66c0,4.48,0,8.45,0,12.78c-13.38,0-26.5,0-40.07,0c0-4.05,0-8.17,0-12.78
			C263.39,349.66,276.65,349.66,290.3,349.66z"/>
		<path class="st0" d="M207.22,362.41c0-4.58,0-8.53,0-12.85c12.77,0,25.28,0,38.12,0c0,4.22,0,8.34,0,12.85
			C232.74,362.41,220.24,362.41,207.22,362.41z"/>
		<path class="st0" d="M294.01,362.39c0-4.22,0-8.18,0-12.68c12.08,0,24.21,0,36.73,0c0,4.04,0,8.15,0,12.68
			C318.55,362.39,306.42,362.39,294.01,362.39z"/>
		<path class="st0" d="M249.32,465.73c0-2.86,0-4.53,0-6.39c10.41,0,20.55,0,30.69,0c0.05,0.67,0.1,1.33,0.15,2
			C270.11,462.77,260.07,464.2,249.32,465.73z"/>
		<path class="st0" d="M457.86,412.18c1.58,13.41,1.11,14.57-5.57,13.76C449.92,413.82,451.12,410.88,457.86,412.18z"/>
		<path d="M363.21,354.28c0-6.31-0.31-12.66,0.17-18.92c0.17-2.24,2.22-6.02,3.49-6.07c8.33-0.32,16.72-0.45,24.99,0.61
			c9.37,1.21,16.37,8.4,21.71,17.79c6.84,12.03,13.33,24.39,19.81,36.74c0.98,1.86,1.08,4.46,1.58,6.72
			c-1.64,0.45-3.28,1.22-4.93,1.29c-4.62,0.18-9.29,0.58-13.85-0.09c-4.8-0.7-9.76-1.71-14.17-4.04
			c-9.81-5.15-19.76-8.41-30.46-8.05c-7.41,0.25-8.28-1.08-8.31-10.43c-0.02-5.19,0-10.37,0-15.56
			C363.23,354.28,363.22,354.28,363.21,354.28z M417.81,366.55c-13.37-31.41-19.76-34.57-49.95-31.23c0,12.93,0,25.88,0,39.81
			c14.03-0.57,27.44,1.64,39.46,11.09C410.81,378.85,403.75,363.76,417.81,366.55z"/>
		<path d="M360.15,438.53c-1.57,0.23-3.14,0.47-4.99,0.75c0-37.16,0-74.27,0-111.39c0.59-0.13,1.19-0.26,1.78-0.4
			c0.32,2.44,0.9,4.88,0.91,7.32c0.14,31.12,0.14,62.24,0.36,93.36c0.02,3.54,1.14,7.07,1.74,10.6
			C359.95,438.78,360.15,438.53,360.15,438.53z"/>
		<path d="M363.99,403.92c-1.52-5.14-0.11-6.99,3.01-6.93c3.7,0.07,7.42,0.27,11.08,0.88c1.02,0.17,1.87,1.95,2.8,3
			c-0.99,1.02-1.95,2.84-2.98,2.91C373.19,404.1,368.46,403.92,363.99,403.92z"/>
		<path d="M216.29,460.38c0.32-4.39,2.12-7.75,6.08-8.19c4.36-0.49,8.92,3.9,8.8,8.44c-0.12,4.76-1.82,8.19-6.07,8.33
			C219.98,469.12,216.35,465.73,216.29,460.38z"/>
		<path d="M392.16,460.22c0.04,4.79-3.01,8.29-7.36,8.45c-4.26,0.16-7.46-3.29-7.53-8.13c-0.06-4.56,3.41-8.54,7.4-8.49
			C389.13,452.1,392.13,455.37,392.16,460.22z"/>
		<path class="st0" d="M417.81,366.55c-14.06-2.79-7,12.3-10.49,19.67c-12.03-9.45-25.43-11.65-39.46-11.09c0-13.94,0-26.88,0-39.81
			C398.05,331.98,404.44,335.14,417.81,366.55z"/>
	</g>
</g>
<line class="st1" x1="139.5" y1="319" x2="141.38" y2="459"/>
<line class="st1" x1="199" y1="316.5" x2="295" y2="316.5"/>
<text transform="matrix(1.1314 0 0 1 216.1392 311.627)" class="st2 st3">5.5 ft </text>
<text transform="matrix(1.1314 0 0 1 94.686 396.3574)" class="st2 st3">9 ft </text>
</svg>
