<?xml version="1.0" encoding="utf-8"?>
<!-- Generator: Adobe Illustrator 25.0.0, SVG Export Plug-In . SVG Version: 6.00 Build 0)  -->
<svg version="1.1" id="Layer_1" xmlns="http://www.w3.org/2000/svg" xmlns:xlink="http://www.w3.org/1999/xlink" x="0px" y="0px"
	 viewBox="0 0 595.28 841.89" style="enable-background:new 0 0 595.28 841.89;" xml:space="preserve">
<style type="text/css">
	.st0{fill:#FFFFFF;}
	.st1{fill:#FFFFFF;stroke:#000000;stroke-miterlimit:10;}
	.st2{font-family:'MyriadPro-Regular';}
	.st3{font-size:23.7006px;}
	.st4{font-size:19.3609px;}
</style>
<g>
	<g>
		<path class="st0" d="M466.78,501.92c0,1.36,0,2.72,0,4.08c-117.59,0-235.19,0-352.78,0c0-69.33,0-138.67,0-208
			c117.59,0,235.19,0,352.78,0c0,67.63,0,135.27,0,202.9c-26.32,0-52.64,0-79.33,0c15.18-14.28,18.15-30.2,8.28-42.81
			c-9.52-12.17-26.64-14.77-37.39-5.27c-7.13,6.3-10.28,14.83-9.73,24.75c0.54,9.7,4.49,17.49,13.08,23.14
			c-45.77,0-90.35,0-135.13,0c15.83-16.92,17.53-34.29,4.78-47.13c-11.76-11.83-28.34-10.31-39.72,3.57
			c-10.66,13-8.9,31.01,7.79,43.75c-21.72,0-42.91,0-64.1,0c-0.18,0.6-0.37,1.21-0.55,1.81c1.35,0.57,2.7,1.63,4.06,1.64
			c24.94,0.17,49.89,0.26,74.83,0.26c28.28,0.01,56.56-0.1,84.84-0.11c28.12-0.01,56.26,0.69,84.36-0.13
			C410.83,503.56,438.95,507.89,466.78,501.92z M265.74,442.22c-7.92,0-15.4,0-23.15,0c1.57,4.13,2.96,7.78,4.36,11.44
			c-0.51,0.28-1.03,0.55-1.54,0.83c-0.63-0.98-1.35-1.92-1.88-2.96c-1.29-2.52-2.06-5.52-3.83-7.52c-2.32-2.61-2.64-7.59-7.29-7.59
			c-13.03-0.01-26.06-0.09-39.08,0.12c-1.55,0.03-3.68,1.26-4.52,2.64c-3.51,5.76-6.55,11.86-9.97,17.69
			c-0.94,1.6-2.6,2.71-3.94,4.04c0.27-1.95,0.14-4.09,0.88-5.8c1.9-4.41,4.18-8.62,6.36-13.01c-2.14,0-4.12,0-5.98,0
			c-0.58,2.38-1.09,4.47-1.69,6.92c-6.11,0-12.05,0-18.39,0c0.33,4.28,0.63,8.08,0.96,12.29c5.07-1.67,9.39,3.61,14.22,0.26
			c0.5-0.35,1.96,0.88,3.84,1.81c-5.57,2.69-12.67,0.64-14.64,8.96c6.34,0,12.29-0.11,18.24,0.04c3.17,0.08,4.54-1.33,5.68-4.52
			c1.38-3.88,3.44-7.65,5.84-10.93c15.22-20.84,36.98-14.62,46.47,1.59c2.63,4.49,3.99,9.69,10.16,9.56c0.08,0,0.18,0.59,0.38,1.29
			c-2.07,0-4.03,0-6.13,0c0,4.54,0,8.68,0,13.17c8,0,15.75,0.02,23.49-0.01c3.39-0.01,6.99,0.87,9-3.62
			c0.42-0.94,2.48-1.46,3.79-1.47c15.68-0.1,31.36-0.06,45.17-0.06c3.84,2.27,6.37,4.77,9.16,5.18c5.06,0.73,10.28,0.21,14.45,0.21
			c1.6-7.44,2.54-15.47,5.13-22.84c2.94-8.35,9.82-12.73,17.94-13.95c7.02-1.06,13.75,0.33,20.02,4.38
			c8.84,5.71,12.62,14.57,13.97,24.27c14.02,0,27.52,0.42,40.98-0.14c9.25-0.39,15.2-7.04,16.74-16.79
			c1.29-8.18,0.26-10.6-5.64-12.54c0.2-1.58,0.65-3.23,0.59-4.86c-0.47-13.52,0.53-27.38-2.06-40.43
			c-2.09-10.56-7.69-20.71-13.26-30c-7.49-12.51-16.3-24.14-24.82-35.92c-7.62-10.52-17.14-17.11-30.35-16.82
			c-13.96,0.31-27.94-0.41-41.92-0.54c-12.19-0.11-24.38-0.02-36.75-0.02c0,24.14,0,47.67,0,71.21c0.28,0,0.57,0.01,0.85,0.01
			c0-23.49,0-46.98,0-70.16c4.36,0,8.1,0,11.75,0c0,25.49,0,50.53,0,76.14c-61.7,0-122.79,0-184,0c0,19.99,0,39.42,0,60.15
			c3.03-1.64,5.23-2.83,7.72-4.18c0.22,1.03,0.36,1.8,0.54,2.57c1.2,5.19,5.55,1.18,7.94,3.02c-0.65-0.65-1.3-1.3-1.31-1.31
			c0.67-1.81,1.18-3.18,1.69-4.55c-1.22-0.45-2.43-1.22-3.67-1.29c-3.28-0.18-6.58-0.06-10-0.06c0-5.37,0-10.32,0-15.24
			c49.28,0,98.18,0,147.09,0c0.26,1.71,0.48,3.15,0.69,4.58c3.49,0.48,6.7,0.92,10.05,1.38c0.31-2.28,0.56-4.05,0.81-5.87
			c6.85,0,13.41,0,19.87,0c0,5.19,0,10.01,0,15.32c-9.68,0-18.97,0-27.76,0c-0.45,3.87-0.83,7.18-1.27,10.97
			c-4.85-3.2-5.73-6.37-3.8-11.18c-3.53,0-7.02-0.25-10.47,0.06C269.07,448.5,265.38,448.28,265.74,442.22z M135.82,361.89
			c17.71,0,34.67,0,51.63,0c0-0.52,0-1.05,0-1.57c-17.01-0.33-34.03,0.43-51.55-0.96c0-2.19,0-5.07,0-7.95
			c-0.23,0.01-0.46,0.02-0.68,0.03c0,9.93,0,19.86,0,29.79c0.2,0.01,0.4,0.01,0.6,0.02C135.82,374.7,135.82,368.17,135.82,361.89z
			 M192.71,349.83c2.41,0.53,4.28,0.6,5.75,1.44c0.55,0.31,0.43,3.52,0.2,3.58c-1.93,0.5-3.96,0.57-5.95,0.77
			c1.64,1.4,3.74,2.47,5.6,2.1c1.1-0.22,2.73-2.88,2.5-4.12c-0.36-1.97-1.76-4.78-3.25-5.22c-2.81-0.84-3.24-1.89-2.25-4.35
			c1.85-0.27,3.52-0.52,5.19-0.76c-0.05-0.39-0.11-0.79-0.16-1.18c-2.48,0-4.97,0-7.62,0C192.71,344.92,192.71,347.56,192.71,349.83
			z M210.01,349.74c2.32,0.71,4.32,1.05,6.01,2.01c0.44,0.24-0.07,2.4-0.14,3.68c-1.89-0.13-3.78-0.26-5.67-0.38
			c1.06,1.54,2.89,3.19,4.35,2.87c1.56-0.34,4-2.72,3.85-3.89c-0.27-2.09-1.86-5.07-3.5-5.62c-2.56-0.86-3.58-1.47-2.5-4.23
			c1.83-0.34,3.58-0.67,5.34-1c-0.07-0.33-0.13-0.66-0.2-0.99c-2.44,0-4.88,0-7.55,0C210.01,345.16,210.01,347.79,210.01,349.74z
			 M226.73,355.68c-0.15,0.29-0.29,0.58-0.44,0.87c1.77,0.51,3.75,1.78,5.26,1.32c1.41-0.44,3.46-3.01,3.21-4.11
			c-0.48-2.09-2.16-5.02-3.79-5.41c-3.09-0.74-3.08-1.94-2.24-4.28c1.89-0.23,3.56-0.44,5.24-0.65c-0.05-0.4-0.1-0.8-0.15-1.19
			c-2.39,0-4.78,0-7.25,0c0,2.99,0,5.74,0,7.47c2.35,0.78,4.22,1.09,5.7,2.07c0.49,0.33,0.2,3.41-0.13,3.5
			C230.4,355.7,228.54,355.6,226.73,355.68z M244.11,355.03c-0.25,0.35-0.5,0.7-0.74,1.05c1.69,0.68,3.73,2.32,5,1.81
			c1.61-0.65,3.95-3.7,3.59-4.59c-1.05-2.54-3.3-4.51-5.08-6.71c-0.33,0.3-0.66,0.61-0.99,0.91c-1.75-5.85,4.34-2.26,5.63-5.32
			c-2.8,0-5.16,0-7.59,0c0,2.96,0,5.6,0,7.46c2.27,0.77,4.25,1.16,5.88,2.18c0.39,0.24-0.25,3.71-0.62,3.76
			C247.53,355.79,245.8,355.28,244.11,355.03z M276.62,343.35c-0.15-0.52-0.3-1.04-0.45-1.57c-1.56,0.83-4.36,1.5-4.48,2.52
			c-0.5,4.41-0.21,8.93-0.21,13.4c2.39-3-1.06-8.83,5.03-8.55c-1.16-1.29-2.24-2.49-3.31-3.68
			C274.34,344.76,275.48,344.06,276.62,343.35z M266.45,348.19c-0.1-0.58-0.2-1.17-0.3-1.75c-1.79,0.6-3.57,1.19-5.36,1.79
			c1.33,2.19,2.66,4.38,4.25,7.01c-1.43,0-3.17,0-4.91,0c0,0.54-0.01,1.08-0.01,1.62c2.01,0,4.96,0.91,5.87-0.16
			c4.39-5.17-3.4-4.55-3.93-8.27C263.73,348.34,265.09,348.27,266.45,348.19z M284.36,360.19c-0.04,0.53-0.09,1.06-0.13,1.6
			c6.8,0,13.59,0,20.39,0c-2.27-3.3-4.26-2.77-7.15-1.9C293.39,361.09,288.76,360.19,284.36,360.19z"/>
		<path d="M466.78,501.92c-27.83,5.97-55.95,1.64-83.92,2.45c-28.1,0.82-56.24,0.12-84.36,0.13c-28.28,0.01-56.56,0.12-84.84,0.11
			c-24.94-0.01-49.89-0.1-74.83-0.26c-1.36-0.01-2.7-1.07-4.06-1.64c0.18-0.6,0.37-1.21,0.55-1.81c21.19,0,42.38,0,64.1,0
			c-16.69-12.74-18.45-30.75-7.79-43.75c11.38-13.88,27.96-15.4,39.72-3.57c12.75,12.83,11.05,30.21-4.78,47.13
			c44.78,0,89.36,0,135.13,0c-8.59-5.65-12.54-13.44-13.08-23.14c-0.55-9.92,2.6-18.45,9.73-24.75c10.76-9.51,27.87-6.9,37.39,5.27
			c9.87,12.61,6.91,28.53-8.28,42.81c26.69,0,53.01,0,79.33,0C466.78,501.24,466.78,501.58,466.78,501.92z M211.76,490.73
			c7.77,0.06,14.68-7,14.79-15.13c0.13-9.76-4.86-15.47-13.62-15.51c-9.72-0.04-15,6.45-15.75,15.22
			C196.5,483.05,204.09,490.66,211.76,490.73z M388.92,476.3c-0.04-9.68-6.29-16.26-15.3-16.11c-7.33,0.13-13.63,7.44-13.63,15.84
			c0,8.11,6.57,15.32,14.07,15.45C381.69,491.61,388.95,484.19,388.92,476.3z"/>
		<path d="M265.74,442.22c-0.36,6.06,3.33,6.28,7.73,5.89c3.45-0.31,6.94-0.06,10.47-0.06c-1.93,4.81-1.05,7.98,3.8,11.18
			c0.44-3.78,0.82-7.09,1.27-10.97c8.79,0,18.08,0,27.76,0c0-5.31,0-10.14,0-15.32c-6.46,0-13.03,0-19.87,0
			c-0.25,1.82-0.49,3.59-0.81,5.87c-3.35-0.46-6.56-0.9-10.05-1.38c-0.22-1.43-0.44-2.87-0.69-4.58c-48.91,0-97.8,0-147.09,0
			c0,4.92,0,9.87,0,15.24c3.42,0,6.72-0.12,10,0.06c1.24,0.07,2.45,0.84,3.67,1.29c-0.51,1.37-1.01,2.74-1.69,4.55
			c0.01,0.01,0.66,0.66,1.31,1.31c-2.38-1.84-6.74,2.17-7.94-3.02c-0.18-0.76-0.32-1.53-0.54-2.57c-2.49,1.35-4.69,2.54-7.72,4.18
			c0-20.74,0-40.16,0-60.15c61.21,0,122.29,0,184,0c0-25.61,0-50.66,0-76.14c-3.65,0-7.4,0-11.75,0c0,23.18,0,46.67,0,70.16
			c-0.28,0-0.57-0.01-0.85-0.01c0-23.53,0-47.07,0-71.21c12.37,0,24.56-0.09,36.75,0.02c13.97,0.13,27.96,0.84,41.92,0.54
			c13.21-0.29,22.73,6.3,30.35,16.82c8.53,11.77,17.33,23.41,24.82,35.92c5.57,9.29,11.17,19.44,13.26,30
			c2.59,13.05,1.59,26.92,2.06,40.43c0.06,1.63-0.39,3.28-0.59,4.86c5.9,1.95,6.93,4.37,5.64,12.54
			c-1.54,9.75-7.49,16.41-16.74,16.79c-13.46,0.56-26.96,0.14-40.98,0.14c-1.34-9.7-5.12-18.56-13.97-24.27
			c-6.27-4.05-13.01-5.44-20.02-4.38c-8.12,1.22-15,5.6-17.94,13.95c-2.59,7.37-3.53,15.4-5.13,22.84c-4.17,0-9.39,0.52-14.45-0.21
			c-2.79-0.4-5.32-2.91-9.16-5.18c-13.82,0-29.5-0.03-45.17,0.06c-1.31,0.01-3.37,0.53-3.79,1.47c-2.01,4.48-5.62,3.61-9,3.62
			c-7.75,0.02-15.49,0.01-23.49,0.01c0-4.49,0-8.64,0-13.17c2.1,0,4.06,0,6.13,0c-0.2-0.7-0.29-1.29-0.38-1.29
			c-6.17,0.13-7.54-5.08-10.16-9.56c-9.49-16.21-31.25-22.43-46.47-1.59c-2.4,3.29-4.47,7.05-5.84,10.93
			c-1.13,3.19-2.5,4.6-5.68,4.52c-5.95-0.15-11.9-0.04-18.24-0.04c1.98-8.32,9.07-6.27,14.64-8.96c-1.88-0.93-3.34-2.16-3.84-1.81
			c-4.83,3.35-9.15-1.93-14.22-0.26c-0.33-4.22-0.63-8.01-0.96-12.29c6.34,0,12.27,0,18.39,0c0.6-2.45,1.11-4.54,1.69-6.92
			c1.86,0,3.84,0,5.98,0c-2.18,4.39-4.46,8.6-6.36,13.01c-0.74,1.71-0.61,3.86-0.88,5.8c1.33-1.33,3-2.44,3.94-4.04
			c3.42-5.83,6.45-11.93,9.97-17.69c0.84-1.38,2.97-2.61,4.52-2.64c13.03-0.21,26.06-0.13,39.08-0.12c4.66,0,4.97,4.98,7.29,7.59
			c1.78,2,2.55,5.01,3.83,7.52c0.53,1.04,1.25,1.98,1.88,2.96c0.51-0.28,1.03-0.55,1.54-0.83c-1.39-3.66-2.79-7.31-4.36-11.44
			C250.34,442.22,257.81,442.22,265.74,442.22z M419.26,372.62l0.14,0.15c-7.09-13.78-14.35-27.48-25.14-38.42
			c-2.36-2.39-6.06-4.31-9.27-4.53c-15.78-1.11-31.59-1.58-47.66-2.29c0,39.26,0,77.57,0,115.86c3.07,0.5,5.95,0.98,8.83,1.45
			c-0.06,0.24-0.12,0.47-0.17,0.71c-3.55,0-7.1,0-10.7,0c0-40.01,0-79.54,0-119.25c14.87,0,29.42,0.07,43.98-0.03
			c8.71-0.06,15.69,3.45,20.76,11.03c5.52,8.24,10.98,16.53,16.39,24.85c11.94,18.37,18.24,38.37,16.15,61.09
			c-0.74,8.04-0.12,16.23-0.12,24.39c6.79-0.75,13.18-1.46,19.8-2.19c-0.17-3.69-0.32-7.15-0.49-10.8c-2.39,0-4.3-0.19-6.17,0.04
			c-4.33,0.54-6.72-1.41-6.94-6.02c-0.25-5.07-0.63-10.19-0.27-15.23c0.23-3.16,2.17-5.56,5.78-5.38c2.67,0.13,5.34,0.03,9.07,0.03
			c-1.64-5.23-2.84-9.89-4.62-14.29c-0.61-1.49-2.63-3.18-4.09-3.28c-4.93-0.33-7.18-3.68-9.11-7.76
			c-8.06-17.01-18.36-32.41-30.04-46.75c-2.73-3.35-5.04-6.12-0.67-10.98c-3.87-1.39-6.89-3.35-9.96-3.44
			c-21.74-0.61-43.48-0.94-65.23-0.97c-1.75,0-3.9,2.63-5.13,4.58c-0.86,1.35-0.59,3.61-0.61,5.47
			c-0.34,42.97-0.66,85.94-0.96,128.91c-0.01,1.45,0.2,2.89,0.31,4.34c6.47,0,12.45,0,18.44,0c2.14-7.64,5.01-14.46,11.1-19.26
			c10.93-8.61,22.9-8.63,35.29-5.11c9.76,2.78,14.52,11.3,19.44,19.67c0.99,1.68,2.69,3.9,4.21,4.04c5.3,0.5,10.67,0.19,16.87,0.19
			c0.53-19.83,1.04-38.89,1.55-57.97c-30.62,0.63-60.23,1.24-89.83,1.84c-0.02-0.93-0.04-1.86-0.06-2.8
			c29.71-2.61,59.57-0.89,89.86-1.69C427.97,391.7,425.43,381.45,419.26,372.62z M317.24,407.34c-59.93,0-119.51,0-179.05,0
			c0,7.91,0,15.44,0,22.9c59.8,0,119.25,0,179.05,0C317.24,422.52,317.24,415.12,317.24,407.34z M317.02,397.37
			c-59.96,0-119.41,0-178.89,0c0,2.4,0,4.36,0,6.32c59.89,0,119.5,0,179.44,0C317.38,401.47,317.22,399.67,317.02,397.37z
			 M322.98,471.37c4.86,0,9.1-0.18,13.31,0.05c3.49,0.19,4.67-1.41,4.43-4.99c-6.01,0-11.79,0-17.74,0
			C322.98,468.23,322.98,469.82,322.98,471.37z M275.76,469.22c0.19-0.63,0.38-1.25,0.56-1.88c-2.65-2.93-6.79-0.86-9.98-1.75
			c-1.87-0.52-5.65-0.85-6.4,3.62C265.48,469.22,270.62,469.22,275.76,469.22z M450.3,430.15c0.45-0.01,0.91-0.03,1.36-0.04
			c0-6.25,0-12.5,0-18.75c-0.45,0.01-0.91,0.01-1.36,0.02C450.3,417.64,450.3,423.9,450.3,430.15z M443.31,458.66
			c3.95,5,9.19,4.48,10.92,0C450.91,458.66,447.6,458.66,443.31,458.66z"/>
		<path d="M135.82,361.89c0,6.27,0,12.81,0,19.35c-0.2-0.01-0.4-0.01-0.6-0.02c0-9.93,0-19.86,0-29.79
			c0.23-0.01,0.46-0.02,0.68-0.03c0,2.88,0,5.76,0,7.95c17.52,1.39,34.54,0.63,51.55,0.96c0,0.52,0,1.05,0,1.57
			C170.49,361.89,153.53,361.89,135.82,361.89z"/>
		<path d="M192.71,349.83c0-2.27,0-4.91,0-7.74c2.66,0,5.14,0,7.62,0c0.05,0.39,0.11,0.79,0.16,1.18c-1.67,0.25-3.34,0.49-5.19,0.76
			c-0.99,2.46-0.56,3.5,2.25,4.35c1.49,0.45,2.89,3.26,3.25,5.22c0.22,1.23-1.4,3.9-2.5,4.12c-1.86,0.37-3.96-0.7-5.6-2.1
			c2-0.2,4.02-0.28,5.95-0.77c0.23-0.06,0.35-3.26-0.2-3.58C196.98,350.43,195.12,350.36,192.71,349.83z"/>
		<path d="M210.01,349.74c0-1.95,0-4.58,0-7.54c2.66,0,5.11,0,7.55,0c0.07,0.33,0.13,0.66,0.2,0.99c-1.75,0.33-3.51,0.66-5.34,1
			c-1.08,2.76-0.06,3.37,2.5,4.23c1.64,0.55,3.23,3.53,3.5,5.62c0.15,1.17-2.29,3.55-3.85,3.89c-1.46,0.32-3.29-1.33-4.35-2.87
			c1.89,0.13,3.78,0.26,5.67,0.38c0.07-1.28,0.58-3.43,0.14-3.68C214.32,350.79,212.33,350.44,210.01,349.74z"/>
		<path d="M226.73,355.68c1.81-0.09,3.67,0.02,5.4-0.43c0.33-0.09,0.62-3.17,0.13-3.5c-1.47-0.98-3.34-1.29-5.7-2.07
			c0-1.74,0-4.48,0-7.47c2.47,0,4.86,0,7.25,0c0.05,0.4,0.1,0.8,0.15,1.19c-1.68,0.21-3.35,0.42-5.24,0.65
			c-0.84,2.34-0.85,3.54,2.24,4.28c1.64,0.39,3.31,3.32,3.79,5.41c0.25,1.1-1.8,3.68-3.21,4.11c-1.51,0.47-3.48-0.8-5.26-1.32
			C226.44,356.26,226.58,355.97,226.73,355.68z"/>
		<path d="M244.11,355.03c1.7,0.25,3.42,0.76,5.07,0.56c0.37-0.05,1.01-3.52,0.62-3.76c-1.63-1.02-3.61-1.42-5.88-2.18
			c0-1.86,0-4.5,0-7.46c2.44,0,4.79,0,7.59,0c-1.29,3.06-7.38-0.53-5.63,5.32c0.33-0.3,0.66-0.61,0.99-0.91
			c1.78,2.2,4.04,4.17,5.08,6.71c0.37,0.89-1.98,3.93-3.59,4.59c-1.27,0.52-3.3-1.12-5-1.81
			C243.61,355.73,243.86,355.38,244.11,355.03z"/>
		<path d="M276.62,343.35c-1.14,0.71-2.28,1.41-3.42,2.12c1.08,1.2,2.15,2.39,3.31,3.68c-6.09-0.28-2.64,5.55-5.03,8.55
			c0-4.48-0.29-8.99,0.21-13.4c0.12-1.02,2.92-1.69,4.48-2.52C276.32,342.31,276.47,342.83,276.62,343.35z"/>
		<path d="M266.45,348.19c-1.36,0.08-2.72,0.15-4.4,0.24c0.54,3.73,8.33,3.1,3.93,8.27c-0.91,1.07-3.86,0.16-5.87,0.16
			c0-0.54,0.01-1.08,0.01-1.62c1.74,0,3.47,0,4.91,0c-1.59-2.63-2.92-4.82-4.25-7.01c1.79-0.6,3.57-1.19,5.36-1.79
			C266.25,347.03,266.35,347.61,266.45,348.19z"/>
		<path d="M284.36,360.19c4.39,0,9.02,0.91,13.1-0.31c2.89-0.86,4.88-1.39,7.15,1.9c-6.8,0-13.59,0-20.39,0
			C284.27,361.25,284.32,360.72,284.36,360.19z"/>
		<path class="st0" d="M211.76,490.73c-7.67-0.06-15.25-7.68-14.58-15.42c0.76-8.77,6.04-15.25,15.75-15.22
			c8.76,0.03,13.75,5.74,13.62,15.51C226.43,483.73,219.53,490.79,211.76,490.73z M211.09,482.49c3.63,0.15,7.52-3.56,7.4-7.59
			c-0.1-3.56-1.33-6.68-5.43-6.89c-4.03-0.2-8.23,3.37-8.45,7.15C204.41,478.62,207.71,482.36,211.09,482.49z"/>
		<path class="st0" d="M388.92,476.3c0.03,7.88-7.23,15.31-14.86,15.18c-7.5-0.12-14.07-7.34-14.07-15.45
			c0-8.4,6.29-15.71,13.63-15.84C382.63,460.04,388.88,466.62,388.92,476.3z M381.6,475.01c-0.06-3.92-3.21-6.79-7.42-6.75
			c-4.24,0.03-7.63,3.67-7.44,7.98c0.17,4.01,3.36,7.29,7.09,7.32C377.74,483.6,381.66,479.27,381.6,475.01z"/>
		<path class="st0" d="M419.26,372.62c6.17,8.83,8.71,19.08,10.75,30.22c-30.3,0.8-60.16-0.91-89.86,1.69
			c0.02,0.93,0.04,1.86,0.06,2.8c29.61-0.61,59.21-1.22,89.83-1.84c-0.51,19.08-1.02,38.14-1.55,57.97c-6.2,0-11.56,0.3-16.87-0.19
			c-1.52-0.14-3.22-2.35-4.21-4.04c-4.92-8.37-9.68-16.89-19.44-19.67c-12.39-3.53-24.36-3.51-35.29,5.11
			c-6.09,4.8-8.96,11.62-11.1,19.26c-5.98,0-11.96,0-18.44,0c-0.11-1.44-0.32-2.89-0.31-4.34c0.3-42.97,0.62-85.94,0.96-128.91
			c0.01-1.86-0.25-4.12,0.61-5.47c1.23-1.94,3.38-4.58,5.13-4.58c21.74,0.03,43.49,0.36,65.23,0.97c3.06,0.09,6.08,2.04,9.96,3.44
			c-4.38,4.86-2.06,7.63,0.67,10.98c11.67,14.34,21.98,29.73,30.04,46.75c1.93,4.08,4.19,7.43,9.11,7.76
			c1.46,0.1,3.48,1.78,4.09,3.28c1.78,4.39,2.98,9.06,4.62,14.29c-3.73,0-6.41,0.11-9.07-0.03c-3.61-0.18-5.55,2.21-5.78,5.38
			c-0.36,5.04,0.02,10.16,0.27,15.23c0.23,4.61,2.61,6.56,6.94,6.02c1.87-0.23,3.78-0.04,6.17-0.04c0.16,3.65,0.32,7.11,0.49,10.8
			c-6.61,0.73-13.01,1.44-19.8,2.19c0-8.17-0.62-16.35,0.12-24.39c2.09-22.73-4.22-42.72-16.15-61.09
			c-5.41-8.33-10.87-16.61-16.39-24.85c-5.07-7.58-12.05-11.08-20.76-11.03c-14.55,0.09-29.11,0.03-43.98,0.03
			c0,39.71,0,79.24,0,119.25c3.6,0,7.15,0,10.7,0c0.06-0.24,0.12-0.47,0.17-0.71c-2.88-0.47-5.76-0.95-8.83-1.45
			c0-38.28,0-76.6,0-115.86c16.07,0.71,31.89,1.18,47.66,2.29c3.2,0.23,6.91,2.14,9.27,4.53c10.78,10.94,18.05,24.64,25.13,38.42
			c-0.55-0.58-1.31-1.06-1.6-1.75c-1.28-3.01-3.83-3.42-5.92-2.2c-1.23,0.72-1.94,3.38-2.03,5.22c-0.16,3.01,0.45,6.05,0.58,9.09
			c0.37,8.12,0.34,8.13,7.85,7.64c0.63-0.04,1.36,0.07,1.87-0.22c1.64-0.94,3.2-2.03,4.79-3.06c-1.62-0.91-3.24-1.81-4.85-2.74
			c-0.26-0.15-0.48-0.38-0.82-0.66C419.26,380.31,419.26,376.47,419.26,372.62z M409.63,388.19c-0.3-3.35-0.73-6.35-0.8-9.36
			c-0.08-3.5-1.02-7.9,0.55-10.31c2.23-3.42,0.87-5.18-0.62-7.45c-2.35-3.6-4.81-7.12-7.28-10.62c-4.69-6.63-9.23-14.41-17.48-15.31
			c-12.09-1.32-24.35-0.96-36.54-1.19c-2.2-0.04-3.71,0.84-3.74,3.94c-0.14,12.71-0.46,25.42-0.93,38.12
			c-0.13,3.64,1.11,4.6,4.34,4.64c12.68,0.16,25.36,0.48,38.03,1.03c2.34,0.1,5.18,0.88,6.83,2.48
			C397.02,389.04,402.69,389.36,409.63,388.19z M355.89,430.16c-0.38,0.32-0.77,0.64-1.15,0.96c1.6,1.15,3.58,3.56,4.73,3.17
			c2-0.68,4.67-2.86,4.98-4.8c0.84-5.19-3.16-6.08-6.84-6.33c-1.19-6.44,5.04-2,6.27-5.53c-3.03,0-5.72,0-8.69,0c0,3,0,5.8,0,7.88
			c2.43,0.84,4.52,1.46,6.46,2.42c0.19,0.1-0.59,3.36-0.8,3.34C359.18,431.15,357.54,430.59,355.89,430.16z M373.21,417.2
			c0,3.31,0,6.2,0,9.09c0.42-0.39,0.83-0.78,1.25-1.17c1.8,1.23,5.2,2.55,5.14,3.66c-0.4,7.55-4.89-0.55-8.27,2.83
			c3.03,1.14,5.35,2.83,7.39,2.5c1.38-0.22,3.17-3.18,3.37-5.08c0.53-4.99-3.34-5.59-6.68-6c-0.9-6.35,4.71-2,6.38-5.4
			C378.78,417.47,376.14,417.34,373.21,417.2z M357.04,398.74c-1.21-5.75-4.04-6.45-14.91-4.33c-0.74,3.81,0.75,5.22,4.3,4.88
			C349.85,398.96,353.3,398.92,357.04,398.74z"/>
		<path class="st0" d="M317.24,407.34c0,7.78,0,15.18,0,22.9c-59.8,0-119.24,0-179.05,0c0-7.46,0-14.99,0-22.9
			C197.73,407.34,257.31,407.34,317.24,407.34z"/>
		<path class="st0" d="M317.02,397.37c0.2,2.3,0.36,4.11,0.56,6.32c-59.95,0-119.56,0-179.44,0c0-1.96,0-3.91,0-6.32
			C197.61,397.37,257.06,397.37,317.02,397.37z"/>
		<path class="st0" d="M322.98,471.37c0-1.54,0-3.13,0-4.94c5.95,0,11.73,0,17.74,0c0.24,3.58-0.94,5.18-4.43,4.99
			C332.08,471.19,327.85,471.37,322.98,471.37z"/>
		<path class="st0" d="M275.76,469.22c-5.14,0-10.28,0-15.82,0c0.74-4.47,4.52-4.14,6.4-3.62c3.2,0.89,7.34-1.18,9.98,1.75
			C276.14,467.97,275.95,468.6,275.76,469.22z"/>
		<path class="st0" d="M450.3,430.15c0-6.26,0-12.52,0-18.77c0.45-0.01,0.91-0.01,1.36-0.02c0,6.25,0,12.5,0,18.75
			C451.21,430.13,450.76,430.14,450.3,430.15z"/>
		<path class="st0" d="M443.31,458.66c4.29,0,7.6,0,10.92,0C452.5,463.14,447.26,463.66,443.31,458.66z"/>
		<path d="M211.09,482.49c-3.38-0.14-6.68-3.87-6.48-7.33c0.22-3.78,4.42-7.35,8.45-7.15c4.1,0.21,5.32,3.32,5.43,6.89
			C218.61,478.94,214.72,482.64,211.09,482.49z"/>
		<path d="M381.6,475.01c0.06,4.26-3.87,8.58-7.77,8.55c-3.74-0.03-6.92-3.32-7.09-7.32c-0.19-4.31,3.2-7.95,7.44-7.98
			C378.4,468.23,381.54,471.09,381.6,475.01z"/>
		<path d="M409.63,388.19c-6.94,1.17-12.61,0.85-17.64-4.03c-1.65-1.6-4.49-2.38-6.83-2.48c-12.67-0.55-25.35-0.87-38.03-1.03
			c-3.24-0.04-4.48-1.01-4.34-4.64c0.47-12.7,0.79-25.41,0.93-38.12c0.03-3.09,1.54-3.98,3.74-3.94
			c12.19,0.23,24.45-0.13,36.54,1.19c8.25,0.9,12.79,8.68,17.48,15.31c2.48,3.5,4.93,7.02,7.28,10.62c1.49,2.27,2.85,4.03,0.62,7.45
			c-1.57,2.41-0.63,6.81-0.55,10.31C408.9,381.84,409.33,384.84,409.63,388.19z"/>
		<path d="M419.26,372.62c0,3.85,0,7.69,0,11.45c0.34,0.28,0.56,0.51,0.82,0.66c1.61,0.92,3.23,1.83,4.85,2.74
			c-1.59,1.03-3.15,2.13-4.79,3.06c-0.51,0.29-1.24,0.18-1.87,0.22c-7.51,0.49-7.47,0.49-7.85-7.64c-0.14-3.04-0.75-6.08-0.58-9.09
			c0.1-1.84,0.8-4.5,2.03-5.22c2.09-1.22,4.63-0.81,5.92,2.2c0.3,0.7,1.05,1.17,1.6,1.75C419.4,372.77,419.26,372.62,419.26,372.62z
			"/>
		<path d="M355.89,430.16c1.65,0.43,3.29,0.99,4.96,1.11c0.21,0.02,1-3.25,0.8-3.34c-1.94-0.96-4.03-1.57-6.46-2.42
			c0-2.08,0-4.88,0-7.88c2.98,0,5.67,0,8.69,0c-1.23,3.53-7.46-0.91-6.27,5.53c3.67,0.26,7.67,1.14,6.84,6.33
			c-0.31,1.94-2.97,4.12-4.98,4.8c-1.15,0.39-3.13-2.02-4.73-3.17C355.12,430.8,355.51,430.48,355.89,430.16z"/>
		<path d="M373.21,417.2c2.93,0.14,5.57,0.27,8.58,0.42c-1.67,3.4-7.28-0.94-6.38,5.4c3.33,0.41,7.2,1.01,6.68,6
			c-0.2,1.9-1.99,4.86-3.37,5.08c-2.04,0.33-4.36-1.36-7.39-2.5c3.38-3.38,7.87,4.73,8.27-2.83c0.06-1.11-3.34-2.43-5.14-3.66
			c-0.42,0.39-0.83,0.78-1.25,1.17C373.21,423.4,373.21,420.51,373.21,417.2z"/>
		<path d="M357.04,398.74c-3.73,0.18-7.19,0.22-10.61,0.55c-3.55,0.34-5.04-1.06-4.3-4.88
			C352.99,392.28,355.82,392.99,357.04,398.74z"/>
	</g>
</g>
<rect x="105" y="281" class="st0" width="213" height="105"/>
<line class="st1" x1="120.5" y1="363" x2="122.34" y2="492"/>
<line class="st1" x1="178" y1="378.5" x2="273" y2="378.5"/>
<rect x="343" y="414" class="st0" width="79" height="21"/>
<text transform="matrix(1.2036 0 0 1 76.5044 432.5654)" class="st2 st3">8 ft </text>
<text transform="matrix(1.4733 0 0 1 195.0972 365.4785)" class="st2 st4">5.5 ft </text>
</svg>
