<?xml version="1.0" encoding="utf-8"?>
<!-- Generator: Adobe Illustrator 25.0.0, SVG Export Plug-In . SVG Version: 6.00 Build 0)  -->
<svg version="1.1" id="Layer_1" xmlns="http://www.w3.org/2000/svg" xmlns:xlink="http://www.w3.org/1999/xlink" x="0px" y="0px"
	 viewBox="0 0 595.28 841.89" style="enable-background:new 0 0 595.28 841.89;" xml:space="preserve">
<style type="text/css">
	.st0{fill:#FFFFFF;}
	.st1{fill:#FFFFFF;stroke:#000000;stroke-miterlimit:10;}
	.st2{font-family:'MyriadPro-Regular';}
	.st3{font-size:29.4477px;}
</style>
<rect x="280" y="370" class="st0" width="127" height="20"/>
<g>
	<g>
		<path class="st0" d="M143,450.48c0-60.16,0-120.32,0-180.48c102.64,0,205.27,0,307.91,0c0,67.49,0,134.97,0,202.46
			c-98.33,0-196.67,0-295,0c0.17-2.21,0.34-4.43,0.51-6.65c5.44,0.93,8.28-1.46,8.61-7.01c0.36-6-1.83-7.5-11.15-7.17
			c0.37,6.95,0.74,13.89,1.11,20.83c-3.99,0-7.99,0-11.98,0c0-1.93,0-3.86,0-5.78c2.39-1.21,5.69-1.58,6.99-3.79
			C153.64,456.63,150.07,450.64,143,450.48z M183.31,450.97c10.99,2.17,263.92,0.98,266.35-2.5c-22.07,0-44.15,0-66.22,0
			c7.18-6.54,12.53-13.45,13.48-24.64c9.84,0,19.5,0.13,29.15-0.04c10.76-0.19,16.67-9,14.66-20.96
			c-0.98-5.88-1.32-11.94-1.72-17.94c-0.23-3.44,0.05-6.93,0-10.4c-0.14-11.68-3.25-22.23-8.51-31.64
			c-6.86-12.26-13.85-24.43-21.28-36.14c-6.54-10.31-13.75-19.68-25.7-19.41c-13.97,0.32-27.95,0.17-41.92,0.02
			c-4.32-0.05-6.02,2.06-5.97,7.56c0.16,18.5,0.06,37,0.06,55.5c0,2.02,0,4.04,0,6.19c-4.84,0-8.97,0-13.11,0
			c-47.15-0.01-94.29,0.03-141.44-0.09c-4.3-0.01-6.1,1.65-5.96,7.32c0.26,10.01,0.12,20.04-0.01,30.06
			c-0.03,2.42-0.16,5.34-1.22,7.12c-1.37,2.32-3.52,4.05-1.81,7.18c1.33,2.44,2.84,5.31,4.83,6.48c3.09,1.81,6.62,2.96,10.03,3.27
			c5.57,0.52,11.2,0.14,16.97,0.14c0.24,14.27,5.02,23.88,14.59,29.78c-4.32,0.38-8.31,0.38-12.3,0.38c-3.99,0-7.99,0.01-11.98,0.02
			C185.11,448.23,185.11,448.23,183.31,450.97z"/>
		<path d="M154.98,472.46c-0.37-6.94-0.74-13.88-1.11-20.83c9.32-0.33,11.51,1.17,11.15,7.17c-0.33,5.55-3.17,7.94-8.61,7.01
			c-0.17,2.22-0.34,4.43-0.51,6.65C155.6,472.46,155.29,472.46,154.98,472.46z M164.34,458.69c-2.33-2.67-3.69-4.22-5.04-5.78
			c-0.95,1.8-2.29,3.45-2.74,5.43c-0.53,2.33-0.5,5.64,2.37,5.25C160.48,463.37,161.84,461.05,164.34,458.69z"/>
		<path d="M143,450.48c7.07,0.16,10.64,6.15,6.99,12.4c-1.3,2.22-4.6,2.58-6.99,3.79c0-1.16,0-2.31,0-3.47
			c1.67-0.31,4.39,0.02,4.8-1.05c0.8-2.07,0.83-5.22,0.1-7.33c-0.34-0.99-3.19-0.63-4.9-0.87C143,452.79,143,451.63,143,450.48z"/>
		<path class="st0" d="M143,453.95c1.71,0.25,4.56-0.12,4.9,0.87c0.73,2.11,0.7,5.26-0.1,7.33c-0.41,1.07-3.13,0.75-4.8,1.05
			C143,460.12,143,457.03,143,453.95z"/>
		<path d="M183.31,450.97c1.8-2.74,1.8-2.74,10.98-2.75c3.99,0,7.99-0.01,11.98-0.02c3.99,0,7.98,0,12.3-0.38
			c-9.57-5.9-14.35-15.51-14.59-29.78c-5.78,0-11.4,0.38-16.97-0.14c-3.41-0.32-6.94-1.46-10.03-3.27
			c-1.99-1.17-3.49-4.04-4.83-6.48c-1.71-3.13,0.44-4.86,1.81-7.18c1.06-1.78,1.19-4.7,1.22-7.12c0.13-10.02,0.27-20.05,0.01-30.06
			c-0.15-5.67,1.65-7.33,5.96-7.32c47.15,0.13,94.29,0.09,141.44,0.09c4.13,0,8.27,0,13.11,0c0-2.15,0-4.17,0-6.19
			c0-18.5,0.1-37-0.06-55.5c-0.05-5.5,1.65-7.6,5.97-7.56c13.97,0.15,27.95,0.3,41.92-0.02c11.94-0.27,19.15,9.1,25.7,19.41
			c7.43,11.71,14.42,23.88,21.28,36.14c5.26,9.41,8.37,19.96,8.51,31.64c0.04,3.47-0.23,6.96,0,10.4c0.4,6,0.74,12.07,1.72,17.94
			c2,11.96-3.9,20.77-14.66,20.96c-9.65,0.17-19.31,0.04-29.15,0.04c-0.95,11.19-6.3,18.1-13.48,24.64c22.07,0,44.15,0,66.22,0
			C447.22,451.95,194.3,453.15,183.31,450.97z M178.15,359.4c0,13.46,0,26.44,0,40.12c8.6,0,16.86,0.1,25.12-0.12
			c1.11-0.03,2.52-1.37,3.25-2.61c6.79-11.61,16.44-12.41,26.48-10.78c6.05,0.99,11.27,4.55,15.07,11.01
			c0.79,1.34,2.68,2.33,4.07,2.34c24.88,0.14,49.76,0.1,74.64,0.1c1.63,0,3.26,0,4.98,0c0-13.73,0-26.74,0-40.06
			C280.59,359.4,229.67,359.4,178.15,359.4z M420.3,350.95c-7.01,0-13.58-0.22-20.15,0.09c-3.6,0.17-6.41-0.97-9.17-3.97
			c-4.28-4.63-9.21-7.29-15.19-6.37c-4.7,0.72-9.48,0.58-14.21,1c-2.91,0.25-4.26-1.12-4.21-4.88c0.15-11.94,0.1-23.89,0.44-35.82
			c0.04-1.41,2-3.82,3.15-3.9c6.43-0.41,12.88-0.22,19.33-0.28c9.79-0.1,17.29,4.81,22.71,15.27c4.59,8.84,9.56,17.41,14.67,25.79
			c4.09,6.72,5.98,13.87,5.67,22.41c-0.4,11.16-0.11,22.35-0.08,33.53c0,1.67,0.17,3.34,0.29,5.53c2.24,0,4.2,0,6.17,0
			c2.09,0,4.18,0,6.15,0c0-3.02,0-5.22,0-6.58c-3.08-3.81-9.12,2.99-9.82-5.62c-1.07-13.17-0.72-13.61,10.4-17.99
			c-2.25-6.89-3.66-14.34-6.83-20.33c-7.78-14.71-16.05-29.06-24.78-42.9c-3.29-5.21-7.91-10.46-12.77-12.49
			c-12.84-5.36-26.32-1.89-39.47-2.66c0,35.34,0,69.87,0,104.75c13.71-14.43,26.94-14.22,40.56,0.2c1.38,1.46,2.99,3.51,4.55,3.59
			c7.46,0.38,14.94,0.17,22.61,0.17C420.3,383.06,420.3,367.51,420.3,350.95z M251.05,427.82c-4.67,7.41-8.87,14.08-12.58,19.96
			c41.09,0,83.54,0,126.94,0c-7.12-4.84-12.06-10.74-14.13-19.45c-0.99-4.16-2.75-5.45-5.91-5c-12.19,1.74-24.75-3.6-36.75,3.53
			c-2.48,1.47-6.06,0.28-9.11-0.03c-7.04-0.7-14.08-2.48-21.09-2.23C268.82,424.96,259.25,426.79,251.05,427.82z M349.23,399.13
			c0-36.18,0-72.09,0-107.96c-3.74,0-7.18,0-10.66,0c0,36.13,0,71.86,0,107.96C342.24,399.13,345.56,399.13,349.23,399.13z
			 M377.36,334.18c4.58,2.22,8.29,4.14,12.08,5.81c1.18,0.52,2.67,0.91,3.79,0.46c5.68-2.33,11.28-4.95,17.52-7.75
			c-5.18-8.45-10.53-17.5-16.23-26.21c-1.21-1.85-3.63-3.34-5.54-3.41c-9.27-0.35-18.56-0.16-28.21-0.16
			c0.22,4.42,0.42,8.57,0.62,12.64C372.44,319.19,375.64,323.13,377.36,334.18z M375.1,435.74c6.78,0.13,11.75-6.46,11.84-15.69
			c0.08-7.89-5.86-15.23-12.47-15.43c-6.37-0.19-12.18,6.68-12.44,14.7C361.74,428.21,367.62,435.6,375.1,435.74z M227.28,436.43
			c6.71-0.12,12.3-6.58,12.19-14.1c-0.14-9.38-5.39-16.69-11.84-16.48c-6.25,0.2-12.6,8.16-12.55,15.74
			C215.13,429.71,220.75,436.54,227.28,436.43z M288.34,413.1c1.87,4.21,2.74,8.88,4.37,9.33c4.82,1.34,9.93,1.03,15.3,1.38
			c0-2.31-0.15-3.84,0.03-5.3c0.62-5.24-1.25-6.81-5.2-6.32C298.6,412.71,294.33,412.75,288.34,413.1z M250.26,424.68
			c7.57-1.3,14.96-2.58,22.36-3.85c-0.05-0.72-0.11-1.43-0.16-2.15c-7.68,0-15.35,0-23.37,0
			C249.44,420.46,249.75,422.06,250.26,424.68z M435.95,374.21c-7.23-0.03-8.02,1.6-6.75,13.55c2.15,0,4.34,0,6.75,0
			C435.95,383.21,435.95,378.92,435.95,374.21z"/>
		<path class="st0" d="M164.34,458.69c-2.49,2.36-3.86,4.69-5.41,4.9c-2.87,0.4-2.9-2.92-2.37-5.25c0.45-1.98,1.79-3.63,2.74-5.43
			C160.65,454.46,162.01,456.02,164.34,458.69z"/>
		<path class="st0" d="M178.15,359.4c51.52,0,102.44,0,153.61,0c0,13.32,0,26.33,0,40.06c-1.72,0-3.35,0-4.98,0
			c-24.88,0-49.76,0.04-74.64-0.1c-1.39-0.01-3.29-1-4.07-2.34c-3.8-6.46-9.02-10.02-15.07-11.01
			c-10.04-1.64-19.69-0.83-26.48,10.78c-0.72,1.24-2.13,2.58-3.25,2.61c-8.26,0.22-16.52,0.12-25.12,0.12
			C178.15,385.84,178.15,372.87,178.15,359.4z"/>
		<path class="st0" d="M420.3,350.95c0,16.56,0,32.11,0,48.55c-7.67,0-15.15,0.21-22.61-0.17c-1.56-0.08-3.17-2.13-4.55-3.59
			c-13.62-14.42-26.86-14.63-40.56-0.2c0-34.87,0-69.4,0-104.75c13.15,0.77,26.63-2.7,39.47,2.66c4.86,2.03,9.48,7.28,12.77,12.49
			c8.73,13.84,17.01,28.19,24.78,42.9c3.17,5.99,4.58,13.43,6.83,20.33c-11.12,4.38-11.48,4.82-10.4,17.99
			c0.7,8.61,6.74,1.81,9.82,5.62c0,1.35,0,3.56,0,6.58c-1.97,0-4.06,0-6.15,0c-1.96,0-3.93,0-6.17,0c-0.12-2.2-0.28-3.86-0.29-5.53
			c-0.02-11.18-0.32-22.37,0.08-33.53c0.31-8.54-1.58-15.69-5.67-22.41c-5.11-8.39-10.08-16.95-14.67-25.79
			c-5.43-10.45-12.92-15.37-22.71-15.27c-6.45,0.07-12.9-0.13-19.33,0.28c-1.15,0.07-3.11,2.49-3.15,3.9
			c-0.34,11.93-0.29,23.88-0.44,35.82c-0.05,3.76,1.3,5.14,4.21,4.88c4.73-0.41,9.52-0.27,14.21-1c5.98-0.92,10.91,1.74,15.19,6.37
			c2.76,2.99,5.58,4.14,9.17,3.97C406.72,350.74,413.29,350.95,420.3,350.95z M356.12,362.86c5.1,0,8.62,0.16,12.11-0.12
			c0.86-0.07,1.79-1.44,2.36-2.49c0.17-0.31-0.81-2.31-1.28-2.32c-3.66-0.1-7.33-0.05-10.98,0.35
			C357.72,358.36,357.26,360.4,356.12,362.86z"/>
		<path class="st0" d="M251.05,427.82c8.2-1.03,17.77-2.86,27.37-3.22c7-0.26,14.05,1.52,21.09,2.23c3.05,0.3,6.63,1.5,9.11,0.03
			c12-7.12,24.56-1.78,36.75-3.53c3.17-0.45,4.93,0.84,5.91,5c2.07,8.71,7.01,14.61,14.13,19.45c-43.4,0-85.85,0-126.94,0
			C242.18,441.9,246.38,435.24,251.05,427.82z"/>
		<path class="st0" d="M349.23,399.13c-3.67,0-6.99,0-10.66,0c0-36.1,0-71.83,0-107.96c3.48,0,6.91,0,10.66,0
			C349.23,327.04,349.23,362.95,349.23,399.13z"/>
		<path class="st0" d="M377.36,334.18c-1.72-11.06-4.92-15-15.97-18.62c-0.2-4.07-0.41-8.23-0.62-12.64
			c9.65,0,18.93-0.19,28.21,0.16c1.9,0.07,4.33,1.57,5.54,3.41c5.69,8.7,11.05,17.76,16.23,26.21c-6.25,2.8-11.85,5.42-17.52,7.75
			c-1.11,0.46-2.61,0.06-3.79-0.46C385.65,338.32,381.94,336.41,377.36,334.18z"/>
		<path class="st0" d="M375.1,435.74c-7.47-0.14-13.35-7.53-13.07-16.42c0.25-8.01,6.07-14.88,12.44-14.7
			c6.62,0.19,12.55,7.53,12.47,15.43C386.84,429.28,381.87,435.87,375.1,435.74z M377.41,413.16c-5.19,0.09-8.28,3.78-8.29,7.95
			c-0.01,4.23,2.54,7.68,5.61,7.59c2.95-0.08,6.61-5.21,5.91-9.42C380.21,416.7,378.18,414.54,377.41,413.16z"/>
		<path class="st0" d="M227.28,436.43c-6.53,0.11-12.14-6.72-12.19-14.84c-0.05-7.58,6.3-15.54,12.55-15.74
			c6.45-0.21,11.7,7.11,11.84,16.48C239.58,429.85,233.99,436.32,227.28,436.43z M226.24,429.78c4.15,0.12,7.53-3.47,7.55-7.35
			c0.02-3.23-3.66-7.69-6.51-7.49c-3.35,0.24-5.33,2.61-5.41,6.97C221.78,426.22,222.98,429.38,226.24,429.78z"/>
		<path class="st0" d="M288.34,413.1c5.99-0.35,10.26-0.39,14.49-0.91c3.95-0.49,5.83,1.08,5.2,6.32c-0.17,1.47-0.03,3-0.03,5.3
			c-5.37-0.36-10.48-0.04-15.3-1.38C291.08,421.98,290.21,417.3,288.34,413.1z"/>
		<path class="st0" d="M250.26,424.68c-0.51-2.62-0.82-4.22-1.17-6.01c8.01,0,15.69,0,23.37,0c0.05,0.72,0.11,1.43,0.16,2.15
			C265.23,422.1,257.83,423.38,250.26,424.68z"/>
		<path class="st0" d="M435.95,374.21c0,4.7,0,9,0,13.55c-2.41,0-4.6,0-6.75,0C427.93,375.82,428.72,374.18,435.95,374.21z"/>
		<path d="M356.12,362.86c1.15-2.46,1.61-4.51,2.21-4.57c3.64-0.41,7.32-0.45,10.98-0.35c0.47,0.01,1.45,2.01,1.28,2.32
			c-0.56,1.05-1.5,2.42-2.36,2.49C364.73,363.03,361.22,362.86,356.12,362.86z"/>
		<path d="M377.41,413.16c0.77,1.38,2.8,3.54,3.23,6.12c0.7,4.21-2.96,9.34-5.91,9.42c-3.07,0.09-5.62-3.37-5.61-7.59
			C369.13,416.94,372.22,413.25,377.41,413.16z"/>
		<path d="M226.24,429.78c-3.26-0.4-4.46-3.56-4.38-7.87c0.09-4.35,2.06-6.73,5.41-6.97c2.86-0.2,6.53,4.26,6.51,7.49
			C233.77,426.31,230.39,429.9,226.24,429.78z"/>
	</g>
</g>
<rect x="117" y="424" class="st0" width="52" height="94"/>
<line class="st1" x1="150.5" y1="276" x2="152.71" y2="436"/>
<line class="st1" x1="204" y1="339.5" x2="317" y2="339.5"/>
<text transform="matrix(1.1608 0 0 1 96.7075 364.2812)" class="st2 st3">7 ft </text>
<text transform="matrix(1.1608 0 0 1 234.4087 331.499)" class="st2 st3">5 ft </text>
</svg>
